<svg width="451" height="111" viewBox="0 0 451 111" fill="none" xmlns="http://www.w3.org/2000/svg">
<path d="M124.38 40.82L125 39.04H132.31L132.93 40.82H124.37H124.38ZM121.8 44.68L127.51 29.11H129.94L135.65 44.68H133.27L128.71 31.78L124.13 44.68H121.79H121.8Z" fill="white"/>
<path d="M137.26 44.68V42.94L144.84 31H137.35V29.11H147.42V30.85L139.81 42.79H147.48V44.68H137.26Z" fill="white"/>
<path d="M156.73 44.9401C155.63 44.9401 154.64 44.7701 153.76 44.4301C152.87 44.0801 152.12 43.5901 151.49 42.9401C150.86 42.2801 150.38 41.5101 150.05 40.6001C149.71 39.7001 149.55 38.6801 149.55 37.5501C149.55 37.3501 149.55 37.1301 149.58 36.9101C149.6 36.7001 149.61 36.4701 149.62 36.2301H162.15V38.0101H151.93C151.93 39.0301 152.13 39.9101 152.53 40.6401C152.93 41.3801 153.49 41.9301 154.21 42.3301C154.93 42.7201 155.77 42.9101 156.73 42.9101C157.41 42.9101 158.06 42.7901 158.66 42.5601C159.26 42.3301 159.8 41.9901 160.26 41.5401C160.72 41.0901 161.07 40.5301 161.32 39.8601C161.57 39.2001 161.7 38.4201 161.7 37.5501V36.5801C161.7 35.3501 161.49 34.3001 161.05 33.4401C160.62 32.5801 160.03 31.9201 159.29 31.4801C158.54 31.0401 157.7 30.8201 156.77 30.8201C155.65 30.8201 154.71 31.0901 153.91 31.6101C153.12 32.1301 152.56 32.8901 152.25 33.8701H149.74C150.04 32.8601 150.51 31.9801 151.15 31.2201C151.8 30.4701 152.59 29.8701 153.55 29.4501C154.51 29.0201 155.58 28.8101 156.76 28.8101C158.21 28.8101 159.49 29.1501 160.59 29.8201C161.7 30.4901 162.56 31.4401 163.17 32.6601C163.78 33.8701 164.09 35.2901 164.09 36.9001C164.09 38.5101 163.78 39.9001 163.17 41.1001C162.56 42.3101 161.69 43.2401 160.59 43.9001C159.48 44.5601 158.19 44.9001 156.72 44.9001V44.9401H156.73Z" fill="white"/>
<path d="M174.96 44.68L171.61 37.76H174.05L177.54 44.68H174.96ZM169 36.67H171.89C172.99 36.67 173.79 36.4 174.32 35.85C174.84 35.31 175.1 34.62 175.1 33.77C175.1 32.92 174.85 32.23 174.35 31.72C173.85 31.21 173.03 30.97 171.91 30.97H169.02V36.67H169ZM166.78 44.68V29.11H172.05C173.28 29.11 174.29 29.31 175.07 29.73C175.86 30.15 176.43 30.7 176.81 31.39C177.19 32.08 177.38 32.86 177.38 33.74C177.38 34.62 177.19 35.33 176.81 36.04C176.43 36.75 175.85 37.31 175.04 37.73C174.24 38.16 173.22 38.37 171.98 38.37H169.01V44.69H166.79L166.78 44.68Z" fill="white"/>
<path d="M182.47 42.83H185.9C186.88 42.83 187.64 42.61 188.17 42.15C188.71 41.69 188.98 41.06 188.98 40.23C188.98 39.4 188.71 38.76 188.15 38.27C187.59 37.78 186.83 37.53 185.85 37.53H182.47V42.82V42.83ZM182.47 35.82H185.76C186.69 35.82 187.41 35.6 187.89 35.16C188.38 34.73 188.62 34.11 188.62 33.34C188.62 32.57 188.37 32.01 187.89 31.57C187.4 31.14 186.67 30.91 185.69 30.91H182.47V35.8V35.82ZM180.24 44.68V29.11H185.99C187.07 29.11 187.97 29.29 188.7 29.63C189.43 29.97 189.97 30.45 190.33 31.06C190.69 31.67 190.87 32.34 190.87 33.1C190.87 33.86 190.7 34.54 190.36 35.08C190.02 35.62 189.57 36.03 189.01 36.31C188.45 36.6 187.86 36.76 187.22 36.81L187.53 36.59C188.21 36.61 188.83 36.78 189.4 37.13C189.97 37.48 190.41 37.95 190.74 38.52C191.07 39.1 191.23 39.73 191.23 40.43C191.23 41.23 191.04 41.95 190.65 42.6C190.27 43.25 189.69 43.75 188.94 44.12C188.19 44.49 187.26 44.68 186.16 44.68H180.23H180.24Z" fill="white"/>
<path d="M195.25 40.82L195.87 39.04H203.18L203.8 40.82H195.24H195.25ZM192.67 44.68L198.38 29.11H200.81L206.52 44.68H204.14L199.58 31.78L195 44.68H192.66H192.67Z" fill="white"/>
<path d="M210.96 44.68V38.89L205.82 29.1H208.34L212.36 37.29H211.8L215.8 29.1H218.29L213.18 38.89V44.68H210.96Z" fill="white"/>
<path d="M226.07 44.94C224.55 44.94 223.23 44.5999 222.12 43.9299C221.01 43.2599 220.16 42.3199 219.56 41.0999C218.96 39.8999 218.66 38.4899 218.66 36.8799C218.66 35.2699 218.96 33.8899 219.56 32.6799C220.16 31.4699 221.01 30.52 222.12 29.84C223.23 29.17 224.54 28.83 226.07 28.83C227.89 28.83 229.37 29.26 230.5 30.14C231.63 31.02 232.36 32.25 232.67 33.83H230.23C230.01 32.91 229.55 32.1699 228.87 31.6199C228.18 31.0699 227.25 30.8 226.08 30.8C225.03 30.8 224.11 31.0499 223.34 31.5399C222.57 32.0299 221.98 32.7299 221.56 33.6299C221.14 34.5299 220.94 35.6099 220.94 36.8799C220.94 38.1499 221.14 39.23 221.56 40.14C221.98 41.05 222.57 41.7499 223.34 42.2299C224.11 42.7099 225.02 42.9599 226.08 42.9599C227.25 42.9599 228.18 42.69 228.87 42.17C229.56 41.65 230.01 40.93 230.23 40.03H232.67C232.36 41.57 231.63 42.7799 230.5 43.6499C229.37 44.5199 227.89 44.95 226.07 44.95V44.9299V44.94Z" fill="white"/>
<path d="M236.6 40.82L237.22 39.04H244.53L245.15 40.82H236.59H236.6ZM234.03 44.68L239.74 29.11H242.17L247.88 44.68H245.5L240.94 31.78L236.36 44.68H234.02H234.03Z" fill="white"/>
<path d="M250.09 44.68V29.11H252.32L260.25 41.05V29.11H262.47V44.68H260.25L252.32 32.75V44.68H250.09Z" fill="white"/>
<path d="M279.58 44.68L276.23 37.76H278.67L282.16 44.68H279.58ZM273.62 36.67H276.51C277.61 36.67 278.41 36.4 278.94 35.85C279.47 35.3 279.72 34.62 279.72 33.77C279.72 32.92 279.47 32.23 278.97 31.72C278.47 31.21 277.65 30.97 276.53 30.97H273.64V36.67H273.62ZM271.4 44.68V29.11H276.67C277.9 29.11 278.91 29.31 279.69 29.73C280.48 30.15 281.05 30.7 281.43 31.39C281.81 32.08 282 32.86 282 33.74C282 34.62 281.81 35.33 281.43 36.04C281.05 36.75 280.47 37.31 279.66 37.73C278.86 38.16 277.84 38.37 276.6 38.37H273.63V44.69H271.41L271.4 44.68Z" fill="white"/>
<path d="M284.86 44.68V29.11H294.69V30.94H287.09V35.92H294.02V37.7H287.09V42.85H294.69V44.68H284.86Z" fill="white"/>
<path d="M302.65 44.94C301.51 44.94 300.51 44.74 299.65 44.33C298.79 43.92 298.13 43.3499 297.65 42.5999C297.17 41.8599 296.94 40.99 296.94 40H299.28C299.3 40.57 299.43 41.0799 299.69 41.5399C299.95 41.9999 300.33 42.38 300.82 42.66C301.31 42.94 301.93 43.0699 302.65 43.0699C303.27 43.0699 303.81 42.9599 304.26 42.7599C304.71 42.5599 305.06 42.2599 305.3 41.8999C305.54 41.5399 305.65 41.12 305.65 40.64C305.65 40.09 305.53 39.64 305.27 39.28C305.02 38.93 304.69 38.6299 304.26 38.3999C303.84 38.1699 303.35 37.9699 302.79 37.7899C302.23 37.6099 301.65 37.4199 301.05 37.2099C299.82 36.8099 298.91 36.2899 298.31 35.6499C297.71 35.0099 297.41 34.18 297.41 33.16C297.41 32.28 297.61 31.5299 298.03 30.8799C298.45 30.2299 299.03 29.73 299.77 29.36C300.51 28.99 301.41 28.8199 302.43 28.8199C303.45 28.8199 304.32 29.0099 305.08 29.3799C305.83 29.7499 306.43 30.27 306.86 30.91C307.29 31.57 307.51 32.33 307.51 33.2H305.16C305.16 32.8 305.05 32.4099 304.85 32.0199C304.65 31.6299 304.33 31.3199 303.92 31.0699C303.5 30.8199 302.99 30.7099 302.39 30.7099C301.89 30.6899 301.43 30.7799 301.04 30.9599C300.64 31.1399 300.33 31.3899 300.11 31.7399C299.89 32.0899 299.77 32.4899 299.77 32.9599C299.77 33.4299 299.87 33.8199 300.07 34.0999C300.27 34.3899 300.57 34.64 300.95 34.84C301.34 35.04 301.78 35.24 302.3 35.41C302.81 35.58 303.38 35.7699 304 35.9799C304.77 36.2299 305.45 36.5399 306.05 36.8999C306.65 37.2599 307.12 37.73 307.48 38.3C307.83 38.87 308 39.5999 308 40.4899C308 41.2599 307.8 41.9799 307.4 42.6499C307 43.3099 306.41 43.86 305.62 44.28C304.83 44.71 303.86 44.92 302.69 44.92L302.65 44.94Z" fill="white"/>
<path d="M312.83 36.58H315.83C317 36.58 317.83 36.32 318.33 35.81C318.83 35.3 319.07 34.62 319.07 33.77C319.07 32.87 318.82 32.17 318.33 31.68C317.83 31.19 317 30.94 315.83 30.94H312.83V36.57V36.58ZM310.61 44.68V29.11H315.92C317.17 29.11 318.19 29.31 318.98 29.73C319.78 30.15 320.37 30.7 320.76 31.4C321.15 32.09 321.34 32.89 321.34 33.78C321.34 34.67 321.15 35.4 320.77 36.1C320.39 36.8 319.81 37.37 319 37.79C318.19 38.22 317.17 38.43 315.91 38.43H312.82V44.68H310.6H310.61Z" fill="white"/>
<path d="M329.47 44.94C328.37 44.94 327.38 44.72 326.5 44.28C325.61 43.85 324.91 43.17 324.38 42.28C323.86 41.39 323.59 40.23 323.59 38.84V29.09H325.81V38.85C325.81 39.78 325.97 40.55 326.28 41.15C326.59 41.75 327.02 42.2 327.58 42.49C328.14 42.78 328.78 42.92 329.53 42.92C330.28 42.92 330.94 42.78 331.49 42.49C332.04 42.2 332.46 41.75 332.76 41.15C333.06 40.55 333.21 39.79 333.21 38.85V29.09H335.43V38.84C335.43 40.23 335.16 41.38 334.63 42.28C334.1 43.17 333.38 43.85 332.47 44.28C331.57 44.71 330.57 44.94 329.47 44.94Z" fill="white"/>
<path d="M340.74 42.83H344.17C345.15 42.83 345.91 42.61 346.44 42.15C346.98 41.69 347.25 41.06 347.25 40.23C347.25 39.4 346.98 38.76 346.42 38.27C345.86 37.78 345.1 37.53 344.12 37.53H340.74V42.82V42.83ZM340.74 35.82H344.03C344.96 35.82 345.68 35.6 346.16 35.16C346.65 34.73 346.89 34.11 346.89 33.34C346.89 32.57 346.64 32.01 346.16 31.57C345.67 31.14 344.94 30.91 343.96 30.91H340.74V35.8V35.82ZM338.52 44.68V29.11H344.27C345.35 29.11 346.25 29.29 346.98 29.63C347.71 29.98 348.25 30.45 348.61 31.06C348.97 31.66 349.15 32.34 349.15 33.1C349.15 33.86 348.98 34.54 348.64 35.08C348.29 35.61 347.85 36.03 347.29 36.31C346.73 36.6 346.14 36.76 345.5 36.81L345.81 36.59C346.49 36.61 347.11 36.78 347.68 37.13C348.25 37.48 348.69 37.95 349.02 38.52C349.35 39.1 349.51 39.73 349.51 40.43C349.51 41.23 349.32 41.95 348.93 42.6C348.54 43.25 347.97 43.75 347.22 44.12C346.47 44.49 345.54 44.68 344.44 44.68H338.51H338.52Z" fill="white"/>
<path d="M352.16 44.68V29.11H354.38V42.92H361.49V44.68H352.16Z" fill="white"/>
<path d="M364.09 44.68V29.11H366.31V44.68H364.09ZM365.21 27.66C364.88 27.66 364.6 27.54 364.37 27.31C364.14 27.07 364.02 26.79 364.02 26.47C364.02 26.15 364.14 25.84 364.37 25.6C364.61 25.36 364.89 25.25 365.21 25.25C365.53 25.25 365.82 25.37 366.07 25.6C366.32 25.84 366.43 26.12 366.43 26.47C366.43 26.82 366.31 27.08 366.07 27.31C365.83 27.54 365.54 27.66 365.21 27.66Z" fill="white"/>
<path d="M369.56 44.68V29.11H371.78V35.87L378.01 29.11H380.79L375.01 35.29L380.89 44.68H378.18L373.43 37.02L371.78 38.78V44.67H369.56V44.68Z" fill="white"/>
<path d="M384.6 40.82L385.22 39.04H392.53L393.15 40.82H384.59H384.6ZM382.03 44.68L387.74 29.11H390.17L395.88 44.68H393.5L388.94 31.78L384.36 44.68H382.02H382.03Z" fill="white"/>
<path d="M403.18 44.94C402.04 44.94 401.04 44.74 400.18 44.33C399.32 43.92 398.66 43.3499 398.18 42.5999C397.7 41.8599 397.47 40.99 397.47 40H399.81C399.83 40.57 399.96 41.0799 400.22 41.5399C400.48 41.9999 400.86 42.38 401.35 42.66C401.84 42.94 402.46 43.0699 403.18 43.0699C403.8 43.0699 404.34 42.9599 404.79 42.7599C405.24 42.5599 405.59 42.2599 405.83 41.8999C406.07 41.5399 406.18 41.12 406.18 40.64C406.18 40.09 406.06 39.64 405.8 39.28C405.55 38.93 405.22 38.6299 404.79 38.3999C404.37 38.1699 403.88 37.9699 403.32 37.7899C402.76 37.6099 402.18 37.4199 401.58 37.2099C400.35 36.8099 399.44 36.2899 398.84 35.6499C398.24 35.0099 397.94 34.18 397.94 33.16C397.94 32.28 398.14 31.5299 398.56 30.8799C398.98 30.2299 399.56 29.73 400.3 29.36C401.04 28.99 401.94 28.8199 402.96 28.8199C403.98 28.8199 404.85 29.0099 405.61 29.3799C406.36 29.7499 406.96 30.27 407.39 30.91C407.82 31.57 408.04 32.33 408.04 33.2H405.69C405.69 32.8 405.58 32.4099 405.38 32.0199C405.18 31.6299 404.86 31.3199 404.45 31.0699C404.03 30.8199 403.52 30.7099 402.92 30.7099C402.42 30.6899 401.96 30.7799 401.57 30.9599C401.17 31.1399 400.86 31.3899 400.64 31.7399C400.42 32.0899 400.3 32.4899 400.3 32.9599C400.3 33.4299 400.4 33.8199 400.6 34.0999C400.8 34.3899 401.1 34.64 401.48 34.84C401.87 35.04 402.31 35.24 402.83 35.41C403.34 35.58 403.91 35.7699 404.53 35.9799C405.3 36.2299 405.98 36.5399 406.58 36.8999C407.18 37.2599 407.65 37.73 408.01 38.3C408.36 38.87 408.53 39.5999 408.53 40.4899C408.53 41.2599 408.33 41.9799 407.93 42.6499C407.53 43.3199 406.94 43.86 406.15 44.28C405.36 44.71 404.39 44.92 403.22 44.92L403.18 44.94Z" fill="white"/>
<path d="M413.36 29.11H411.14V44.68H413.36V29.11Z" fill="white"/>
<path d="M416.6 44.68V29.11H418.82L426.75 41.05V29.11H428.98V44.68H426.75L418.82 32.75V44.68H416.6Z" fill="white"/>
<path d="M434.45 29.11H432.23V44.68H434.45V29.11Z" fill="white"/>
<path d="M437.69 44.68V29.11H439.91L447.84 41.05V29.11H450.06V44.68H447.84L439.91 32.75V44.68H437.69Z" fill="white"/>
<path d="M121.99 89.36V57.92H127.28L137.92 79.16L148.51 57.92H153.84V89.36H149.36V65.77L139.62 84.96H136.17L126.47 65.8201V89.36H121.99Z" fill="white"/>
<path d="M173.68 89.89C171.47 89.89 169.47 89.54 167.69 88.85C165.91 88.16 164.39 87.16 163.11 85.84C161.84 84.52 160.87 82.95 160.2 81.13C159.53 79.3 159.19 77.25 159.19 74.97C159.19 74.55 159.21 74.12 159.23 73.69C159.26 73.26 159.29 72.8 159.32 72.32H184.64V75.92H164C164 77.98 164.41 79.76 165.21 81.25C166.02 82.73 167.15 83.87 168.6 84.66C170.05 85.46 171.75 85.85 173.69 85.85C175.07 85.85 176.36 85.62 177.59 85.15C178.82 84.69 179.89 84 180.82 83.09C181.75 82.18 182.47 81.04 182.97 79.7C183.48 78.35 183.73 76.79 183.73 75.03V73.05C183.73 70.56 183.3 68.45 182.43 66.71C181.56 64.97 180.38 63.65 178.86 62.76C177.35 61.86 175.65 61.41 173.76 61.41C171.51 61.41 169.59 61.94 167.99 63C166.39 64.06 165.27 65.59 164.64 67.56H159.57C160.17 65.52 161.12 63.74 162.42 62.22C163.72 60.7 165.33 59.5 167.27 58.65C169.2 57.8 171.36 57.37 173.76 57.37C176.69 57.37 179.27 58.05 181.51 59.42C183.74 60.78 185.48 62.69 186.72 65.15C187.96 67.6 188.58 70.47 188.58 73.73C188.58 76.99 187.96 79.79 186.72 82.22C185.48 84.65 183.74 86.54 181.49 87.88C179.25 89.23 176.64 89.9 173.68 89.9V89.89Z" fill="white"/>
<path d="M210.49 89.36L203.71 75.39H208.65L215.7 89.36H210.5H210.49ZM198.46 73.18H204.29C206.5 73.18 208.13 72.63 209.18 71.54C210.23 70.45 210.75 69.05 210.75 67.34C210.75 65.63 210.25 64.22 209.23 63.21C208.21 62.2 206.57 61.69 204.29 61.69H198.46V73.19V73.18ZM193.97 89.36V57.91H204.61C207.09 57.91 209.12 58.33 210.71 59.17C212.29 60.01 213.47 61.13 214.23 62.52C214.99 63.91 215.37 65.49 215.37 67.26C215.37 68.93 214.99 70.49 214.23 71.91C213.47 73.34 212.27 74.47 210.66 75.32C209.05 76.17 206.98 76.6 204.46 76.6H198.45V89.36H193.96H193.97Z" fill="white"/>
<path d="M221.17 89.36V57.92H225.66V71.5701L238.23 57.92H243.84L232.18 70.4L244.07 89.36H238.59L228.99 73.91L225.67 77.45V89.36H221.18H221.17Z" fill="white"/>
<path d="M261.7 89.89C259.49 89.89 257.49 89.54 255.71 88.85C253.93 88.16 252.41 87.16 251.13 85.84C249.86 84.52 248.89 82.95 248.22 81.13C247.55 79.3 247.21 77.25 247.21 74.97C247.21 74.55 247.23 74.12 247.25 73.69C247.27 73.26 247.31 72.8 247.34 72.32H272.66V75.92H252.02C252.02 77.98 252.43 79.76 253.23 81.25C254.04 82.73 255.17 83.87 256.62 84.66C258.07 85.46 259.77 85.85 261.71 85.85C263.09 85.85 264.38 85.62 265.61 85.15C266.84 84.69 267.91 84 268.84 83.09C269.77 82.18 270.49 81.04 270.99 79.7C271.5 78.35 271.75 76.79 271.75 75.03V73.05C271.75 70.56 271.32 68.45 270.45 66.71C269.58 64.97 268.4 63.65 266.88 62.76C265.37 61.86 263.67 61.41 261.78 61.41C259.53 61.41 257.61 61.94 256.01 63C254.41 64.06 253.29 65.59 252.66 67.56H247.59C248.19 65.52 249.14 63.74 250.44 62.22C251.74 60.7 253.35 59.5 255.29 58.65C257.22 57.8 259.38 57.37 261.78 57.37C264.71 57.37 267.29 58.05 269.53 59.42C271.76 60.78 273.5 62.69 274.74 65.15C275.98 67.6 276.6 70.47 276.6 73.73C276.6 76.99 275.98 79.79 274.74 82.22C273.5 84.65 271.76 86.54 269.51 87.88C267.27 89.23 264.66 89.9 261.7 89.9V89.89Z" fill="white"/>
<path d="M280.77 89.36V85.86L296.08 61.7301H280.95V57.92H301.29V61.42L285.94 85.5401H301.42V89.36H280.77Z" fill="white"/>
<path d="M306.76 89.36V57.91H311.25V89.36H306.76ZM309 54.99C308.34 54.99 307.77 54.75 307.29 54.27C306.81 53.79 306.57 53.22 306.57 52.56C306.57 51.9 306.81 51.28 307.29 50.81C307.77 50.33 308.33 50.09 309 50.09C309.67 50.09 310.23 50.33 310.73 50.81C311.23 51.29 311.47 51.87 311.47 52.56C311.47 53.25 311.22 53.79 310.73 54.27C310.23 54.75 309.66 54.99 309 54.99Z" fill="white"/>
<path d="M333.78 85.63H340.69C342.66 85.63 344.2 85.18 345.29 84.26C346.38 83.35 346.93 82.05 346.93 80.37C346.93 78.69 346.37 77.4 345.25 76.42C344.13 75.43 342.58 74.94 340.6 74.94H333.77V85.63H333.78ZM333.78 71.48H340.42C342.31 71.48 343.74 71.04 344.73 70.15C345.72 69.26 346.21 68.05 346.21 66.49C346.21 64.93 345.71 63.81 344.73 62.92C343.75 62.03 342.26 61.59 340.29 61.59H333.78V71.48ZM329.29 89.36V57.91H340.91C343.1 57.91 344.92 58.26 346.39 58.96C347.85 59.66 348.96 60.63 349.69 61.84C350.42 63.05 350.79 64.43 350.79 65.95C350.79 67.47 350.44 68.87 349.75 69.95C349.06 71.03 348.16 71.86 347.03 72.44C345.91 73.02 344.7 73.36 343.42 73.45L344.05 73C345.42 73.04 346.68 73.4 347.82 74.1C348.95 74.81 349.86 75.74 350.51 76.91C351.17 78.08 351.5 79.36 351.5 80.77C351.5 82.39 351.11 83.84 350.33 85.15C349.55 86.45 348.4 87.48 346.88 88.22C345.36 88.96 343.48 89.35 341.27 89.35H329.28L329.29 89.36Z" fill="white"/>
<path d="M359.59 81.58L360.85 77.98H375.62L376.88 81.58H359.6H359.59ZM354.38 89.36L365.91 57.91H370.81L382.34 89.36H377.53L368.33 63.3L359.09 89.36H354.37H354.38Z" fill="white"/>
<path d="M386.83 89.36V57.92H391.32L407.34 82.0401V57.92H411.83V89.36H407.34L391.32 65.28V89.36H386.83Z" fill="white"/>
<path d="M418.38 89.36V57.92H422.87V71.5701L435.44 57.92H441.05L429.38 70.4L441.28 89.36H435.8L426.2 73.91L422.88 77.45V89.36H418.39H418.38Z" fill="white"/>
<path d="M450.07 57.92H445.58V89.37H450.07V57.92Z" fill="white"/>
<path d="M41.49 106.31L41.94 105.49C42.24 104.92 42.31 104.24 42.21 103.62L42.14 102.85L42.61 103.25C43.13 103.67 43.63 104.07 44.16 104.45L44.51 104.7L41.49 106.32V106.31ZM100.03 64.33V64.23L100.01 64.21C100.01 64.21 99.99 64.19 99.96 64.19H99.86L99.84 64.21C99.84 64.21 99.82 64.23 99.82 64.26C99.3 65.76 98.7 67.33 98.07 68.65C97.7 69.1 97 69.92 96.47 70.1C96.99 69.43 97.34 68.63 97.47 67.78C98.37 66.13 99.07 64.39 99.57 62.59V62.54C99.57 62.54 99.57 62.52 99.55 62.49C99.55 62.47 99.53 62.47 99.53 62.47C99.53 62.47 99.51 62.45 99.48 62.45H99.43C99.43 62.45 99.41 62.45 99.38 62.47C99.36 62.47 99.36 62.49 99.36 62.49C99.36 62.51 99.34 62.51 99.34 62.54C98.92 64.14 98.32 65.68 97.57 67.15C97.64 66.48 97.67 65.83 97.64 65.15C98.39 63.6 98.94 61.98 99.29 60.29V60.24C99.29 60.24 99.29 60.22 99.27 60.19C99.27 60.17 99.25 60.17 99.25 60.17C99.25 60.17 99.23 60.15 99.2 60.15C99.17 60.15 99.15 60.15 99.13 60.17C99.11 60.19 99.08 60.22 99.08 60.24C98.76 61.76 98.28 63.23 97.66 64.65C97.66 64.2 97.64 63.8 97.64 63.48V62.91C98.24 60.94 98.71 58.94 99.06 56.92V56.87C99.06 56.87 99.06 56.85 99.04 56.82L99.02 56.8C99.02 56.8 99 56.78 98.97 56.78C98.94 56.78 98.92 56.78 98.9 56.8C98.88 56.82 98.85 56.85 98.85 56.87C98.45 59.06 97.93 61.23 97.25 63.38C97.08 63.63 96.9 63.88 96.73 64.1C96.63 64.2 96.56 64.3 96.51 64.37C96.29 64.69 96.01 65.09 95.74 65.54C96.34 63.62 96.96 61.47 97.34 59.8C97.34 59.78 97.34 59.75 97.32 59.73C97.3 59.71 97.27 59.68 97.25 59.68C97.23 59.68 97.2 59.68 97.18 59.7C97.16 59.72 97.13 59.75 97.13 59.77C96.73 61.69 95.96 64.26 95.26 66.35C94.79 67.1 94.41 67.92 94.16 68.77C94.04 67.95 94.06 67.1 94.28 66.28C95.03 64.28 95.68 62.26 96.23 60.22V60.17C96.23 60.17 96.23 60.15 96.21 60.12C96.21 60.1 96.19 60.1 96.19 60.1C96.19 60.1 96.17 60.08 96.14 60.08H96.09C96.09 60.08 96.07 60.08 96.04 60.1C96.02 60.1 96.02 60.12 96.02 60.12C96.02 60.14 96 60.14 96 60.17C95.35 62.61 94.55 65.03 93.61 67.35C93.59 67.37 93.59 67.4 93.59 67.4C92.84 68.42 92.27 69.57 91.94 70.82C91.59 69.35 92.74 66.5 93.09 65.48C89.52 73.31 83.81 79.4 76.58 84.26C69.35 89.12 60.89 91.84 52.16 92.12C51.69 92.14 51.19 92.14 50.71 92.14C40.63 92.14 30.86 88.87 22.8 82.81C14.74 76.75 8.88 68.97 6.09 59.29C5.52 58.44 4.69 57.64 3.87 57.64C3.65 57.66 3.45 57.71 3.25 57.81C3.05 57.91 2.9 58.06 2.78 58.23C1.21 59.98 3.2 61.95 3.45 62.15C3.57 62.27 3.67 62.42 3.72 62.57C3.77 62.74 3.79 62.92 3.77 63.07C3.72 63.34 3.5 63.54 3.12 63.69C2.82 63.79 2.57 63.96 2.35 64.21C2.15 64.46 2 64.73 1.95 65.03C1.9 65.4 1.95 65.78 2.07 66.13L2.29 66.63L1.74 66.56H1.37C0.949999 66.54 0.52 66.66 0.17 66.93C0.1 67 0.0500005 67.08 0.0200005 67.15C4.58211e-07 67.22 0 67.32 0 67.4C0.15 68.7 1.9 69.97 1.9 69.97C1.88 70.07 1.88 70.19 1.9 70.29C1.92 70.39 1.97 70.51 2.02 70.59C2.09 70.69 2.17 70.76 2.27 70.81C2.37 70.86 2.47 70.91 2.59 70.93C2.81 71 3.06 71.03 3.31 71.03C3.41 71.03 3.51 71.03 3.61 71.01C3.61 71.01 3.91 70.99 4.08 70.96C3.21 71.76 3.78 75.52 7.5 75.9C7.67 75.92 7.85 75.92 8.02 75.9C6.3 78.24 9.24 79.44 9.24 80.39C9.24 80.79 8.77 81.16 8.34 81.41C7.77 81.73 7.07 81.98 7.07 82.88C7.07 83.9 7.67 84.9 10.01 84.9C10.83 84.9 11.73 84.97 11.73 85.57C11.73 85.82 11.41 86.09 11.06 86.32C10.64 86.62 10.14 86.92 10.14 87.44C10.14 87.56 10.12 88.69 11.86 89.29L12.58 89.51L11.91 89.83C11.71 89.9 11.56 90.03 11.44 90.18C11.32 90.35 11.24 90.53 11.24 90.73C11.22 91.25 11.66 91.75 12.61 92.13C13.31 92.38 14.03 92.55 14.78 92.6L14.83 92.72L14.9 92.82C14.97 92.89 15.05 92.97 15.15 93.02C15.25 93.07 15.35 93.09 15.45 93.12L15.75 93.14V93.44C15.75 93.64 15.8 93.81 15.87 93.99C15.94 94.17 16.07 94.31 16.22 94.44C16.59 94.84 17.02 95.19 17.47 95.51L18.22 96.03L17.32 96.08C15.9 96.15 14.7 97 14.5 98.05C14.45 98.3 14.45 98.55 14.5 98.8C14.55 99.05 14.65 99.27 14.8 99.5C15.22 99.97 15.82 100.3 16.45 100.35H16.62C17.02 100.33 17.42 100.28 17.82 100.15C18.57 99.98 18.82 99.98 19.14 100.95C19.41 101.75 19.61 102.3 20.36 102.3H20.83C20.83 102.3 19.88 105.07 21.03 106.09C21.18 106.19 21.35 106.24 21.53 106.21C22.15 106.21 23 105.41 23.65 104.61C24.55 103.54 25.3 103.44 25.4 103.44H25.5L25.57 103.49C25.87 103.66 26.19 103.79 26.54 103.84C26.71 103.89 26.89 103.96 27.04 104.09C27.19 104.22 27.29 104.39 27.34 104.56C27.39 104.76 27.39 104.96 27.32 105.13C27.27 105.33 27.15 105.48 27 105.6C26.53 106.1 26.28 106.77 26.28 107.45C26.26 107.75 26.3 108.05 26.4 108.35C26.5 108.62 26.65 108.9 26.85 109.12C27.05 109.32 27.3 109.49 27.57 109.59C27.84 109.69 28.14 109.74 28.42 109.74C28.77 109.76 29.14 109.72 29.47 109.57C29.79 109.42 30.09 109.22 30.32 108.95C30.77 108.43 31.02 107.75 30.97 107.05C30.95 106.93 30.95 106.78 30.97 106.65C30.99 106.52 31.07 106.4 31.14 106.28C31.19 106.21 31.26 106.16 31.36 106.13C31.43 106.11 31.53 106.08 31.61 106.08C31.81 106.08 31.98 106.15 32.13 106.25C32.5 106.57 32.98 106.77 33.45 106.8C33.8 106.8 34.15 106.65 34.42 106.45C34.64 106.3 34.82 106.08 34.92 105.8L35.07 105.35L35.42 105.7C35.57 105.85 35.74 106 35.94 106.07C36.14 106.17 36.36 106.19 36.59 106.19C37.01 106.19 37.41 106.07 37.76 105.84L38.21 105.49L38.23 106.06V106.13C38.23 106.28 38.28 106.43 38.35 106.58C38.42 106.7 38.52 106.83 38.67 106.93C39.29 107.33 40.39 106.83 40.39 106.83C40.39 106.83 38.72 107.8 38.52 107.98C38.47 108.03 38.42 108.08 38.4 108.15C38.38 108.22 38.38 108.3 38.38 108.37C38.45 108.92 39.43 109.12 40.08 109.12C40.3 109.12 40.53 109.1 40.73 109.05C41.05 108.98 41.35 108.85 41.63 108.7C41.63 108.7 44.47 106.6 46.59 105.86C45.07 106.73 43.62 107.71 42.2 108.75C42.08 108.85 41.98 108.95 41.93 109.1C41.88 109.25 41.86 109.4 41.88 109.55C42.03 110.2 43.35 110.32 43.73 110.32C44.4 110.32 45.8 110 46.25 109.57C46.25 109.57 46.3 109.52 46.32 109.47L46.34 109.45C47.11 108.6 47.99 107.85 48.96 107.23L49.11 107.13L49.28 107.23C50.25 107.78 52.27 108.98 53.35 109.6L53.67 109.8V109.78L54.02 110C54.17 110.1 54.37 110.15 54.54 110.17C54.84 110.22 55.14 110.22 55.46 110.22C57.33 110.22 58.65 109.47 58.68 108.82C58.68 108.7 58.66 108.57 58.58 108.47C58.51 108.37 58.41 108.3 58.31 108.25L58.29 108.23C57.42 107.86 54.3 106.38 52.1 105.31L53.9 105.48L54.05 105.53C55.15 105.65 57.82 107.18 59.29 108.07L59.34 108.09C59.66 108.24 60.01 108.31 60.36 108.31C61.08 108.31 62.26 108.01 62.38 107.41C62.4 107.24 62.38 107.09 62.31 106.94C62.24 106.79 62.11 106.69 61.94 106.62L54.98 103.85L55.13 103.3V103.28C59 104.93 62.94 106.35 66.93 107.55L66.58 107.85C66.11 108.22 64.71 109.15 61.72 109.6C62.64 109.8 63.62 109.87 64.56 109.85C66.78 109.8 68.95 109.28 70.95 108.33C71.07 107.28 71.27 106.23 71.55 105.21L71.6 104.99L73.5 104.94L73.1 105.44C72.78 105.89 72.53 106.39 72.35 106.89C73.82 106.27 75.24 105.47 76.57 104.57C77.19 103.8 77.64 102.92 77.87 101.95C77.82 101.88 77.77 101.78 77.7 101.7C75.8 101.92 70.82 102.25 69.19 102.02C69.26 101.95 69.61 101.77 69.79 101.67C72.68 101.62 75.55 101.1 78.3 100.12C78.72 99.95 79.17 99.82 79.62 99.72C81.52 99.17 83.34 98.37 85.03 97.33C85.05 97.33 85.05 97.31 85.05 97.31C85.05 97.31 85.07 97.29 85.07 97.26V97.21C85.07 97.21 85.07 97.19 85.05 97.16C85.05 97.14 85.03 97.14 85.03 97.14C85.03 97.14 85.01 97.12 84.98 97.12H84.93C84.93 97.12 84.91 97.12 84.88 97.14C81.84 98.89 79.92 99.51 77.72 99.91C75.9 100.11 73.6 99.06 73.6 99.06C76.29 99.41 80.33 97.86 83.43 96.14C85.2 95.42 86.87 94.42 88.37 93.2L88.39 93.18V93.08C88.39 93.08 88.39 93.06 88.37 93.03L88.35 93.01H88.25C88.25 93.01 88.23 93.01 88.2 93.03C87.03 94 85.76 94.83 84.36 95.47C82.66 95.97 80.89 96.09 79.15 95.82C81.02 95.67 83.47 94.42 85.41 93.2C87.63 92.08 89.73 90.76 91.7 89.23C91.72 89.21 91.75 89.18 91.75 89.16C91.75 89.14 91.75 89.11 91.73 89.09C91.71 89.07 91.68 89.04 91.66 89.04C91.64 89.04 91.61 89.04 91.59 89.06C89.99 90.28 88.32 91.38 86.55 92.35C85.2 92.62 83.81 92.62 82.46 92.35C85.25 92.18 87.5 90.75 89.59 89.01C91.21 87.96 92.76 86.77 94.18 85.42L94.2 85.4V85.3C94.2 85.3 94.18 85.28 94.18 85.25L94.16 85.23H94.06C94.06 85.23 94.04 85.25 94.01 85.25C92.76 86.42 91.42 87.49 90.02 88.44C88.57 88.94 87.05 89.09 85.53 88.94C88.15 88.69 90.12 87.09 91.59 85.62C92.94 84.55 94.21 83.35 95.38 82.08C95.4 82.06 95.4 82.03 95.4 82.01C95.4 81.99 95.38 81.96 95.38 81.94C95.36 81.92 95.33 81.92 95.31 81.92C95.29 81.92 95.26 81.92 95.24 81.94C94.37 82.89 93.42 83.81 92.45 84.66C91.65 85.11 90.75 85.33 89.83 85.31C91.08 84.91 93 83.14 94.24 81.49C95.96 79.69 97.51 77.75 98.83 75.63C98.83 75.61 98.85 75.61 98.85 75.58V75.53C98.85 75.53 98.85 75.51 98.83 75.48C98.83 75.46 98.81 75.46 98.81 75.46C98.79 75.46 98.79 75.44 98.76 75.44H98.71C98.71 75.44 98.69 75.44 98.66 75.46C98.64 75.46 98.64 75.48 98.64 75.48C97.39 77.45 95.95 79.3 94.37 80.99C93.72 81.14 93.05 81.24 92.37 81.26C93.57 80.74 94.27 79.26 95.66 77.29C97.01 75.79 98.18 74.15 99.15 72.4C99.17 72.38 99.17 72.35 99.15 72.33C99.15 72.31 99.13 72.28 99.1 72.26C99.08 72.24 99.05 72.24 99.03 72.26C99.01 72.26 98.98 72.28 98.96 72.31C98.19 73.71 97.29 75.03 96.27 76.25C95.85 76.7 95.27 76.97 94.67 77.07C95.67 75.95 96.49 74.7 97.14 73.35C98.11 72.03 98.94 70.58 99.56 69.06V68.96C99.56 68.96 99.54 68.94 99.54 68.91C99.54 68.91 99.52 68.89 99.49 68.89H99.39C99.39 68.89 99.37 68.91 99.34 68.91L99.32 68.93C98.7 70.5 97.87 71.95 96.85 73.29C96.48 73.64 96.05 73.89 95.58 74.06C97 72.69 97.5 70.79 97.97 69.12C98.92 67.6 99.62 65.93 100.19 64.23L100.03 64.33Z" fill="black"/>
<path d="M11.3601 73.88C12.4301 74.7 12.4801 75.18 12.2601 75.6C12.0401 76.02 11.5901 77.1 12.5601 77.57C13.3601 77.97 14.1301 76.42 14.3601 75.45C13.4401 74.28 12.5601 73.08 11.7401 71.83C11.5401 71.9 11.3701 72 11.2201 72.18C11.0701 72.36 11.0001 72.53 10.9501 72.73C10.9001 72.93 10.9301 73.15 11.0001 73.35C11.1001 73.57 11.2201 73.75 11.3701 73.87L11.3601 73.88Z" fill="#015844"/>
<path d="M19.9902 83.14C20.0902 83.41 20.2102 83.56 20.2602 83.56C20.3802 83.14 20.3802 82.6901 20.2602 82.2601C20.1402 81.8301 19.8902 81.46 19.5602 81.16C19.3902 81.01 19.1602 80.94 18.9102 80.89C18.6902 80.87 18.4402 80.89 18.2402 80.99C19.3102 81.41 19.8102 82.66 19.9902 83.14Z" fill="#015844"/>
<path d="M44.7402 102.37C44.5702 100.32 42.4202 102.32 42.4202 102.32C43.2402 103.09 44.0902 103.79 45.0102 104.47C45.2102 104.37 45.1802 104.37 45.3802 104.27L45.2302 104C44.9602 103.5 44.7802 102.95 44.7302 102.38L44.7402 102.37Z" fill="#015844"/>
<path d="M37.2301 103.71C36.4101 103.71 35.6301 103.11 35.0801 102.64C35.0801 102.64 34.6101 102.17 34.2301 102.47C33.9601 102.69 34.1301 103.32 34.3301 103.67C34.5801 104.02 34.7501 104.39 34.9001 104.77C35.2001 105.22 35.9201 105.87 36.4501 105.77C37.3701 105.62 37.9701 105.15 37.7201 103.55C37.5701 103.67 37.4001 103.72 37.2201 103.72L37.2301 103.71Z" fill="#015844"/>
<path d="M9.42011 70.59C8.52011 68.1 7.27012 67 5.88012 65.75L5.68012 65.58C5.68012 65.58 5.66012 65.53 5.63012 65.51C5.63012 65.49 5.63012 65.46 5.65012 65.44C5.67012 65.42 5.70012 65.42 5.72012 65.39C5.74012 65.39 5.77012 65.39 5.79012 65.41L5.99012 65.58C7.16012 66.5 8.14012 67.63 8.88012 68.9C7.86012 66.13 6.49012 63.49 4.81012 61.07C4.79012 61.05 4.79012 61.02 4.79012 61C4.79012 60.98 4.81012 60.95 4.84012 60.93C4.87012 60.91 4.89012 60.91 4.91012 60.91C4.93012 60.91 4.96012 60.93 4.98012 60.96C6.93012 63.95 8.50012 66.57 9.64012 70.69C10.5901 72.06 9.79012 68.72 9.79012 68.72V68.7C8.42012 66.21 7.30012 63.59 6.40012 60.87L6.38012 60.85C5.88012 59.45 4.01011 56.93 2.86011 58.48C2.09011 59.5 2.06011 60.3 3.78011 62.27C3.90011 62.39 3.98011 62.57 4.03011 62.72C4.08011 62.89 4.08012 63.07 4.05012 63.24C4.03012 63.41 3.95012 63.56 3.85012 63.71C3.75012 63.86 3.60011 63.96 3.45011 64.03C1.65011 64.83 2.08012 65.9 2.85012 66.45C3.37012 66.82 5.49012 68.27 5.39012 69.44C5.29012 70.64 3.92012 70.79 3.97012 72.28C3.99012 73.23 4.94011 75.5 7.24011 75.52C9.04011 75.52 10.2301 73.23 9.39012 70.61L9.42011 70.59Z" fill="#015844"/>
<path d="M15.8301 77.2301C15.3301 77.1601 14.3301 77.2501 14.0101 77.6001C13.5101 78.1201 12.2601 78.8201 11.6401 77.4301C10.9201 75.8301 10.2701 74.9901 8.70008 75.8801C7.13008 76.7801 7.93008 78.4501 8.70008 79.1501C9.47008 79.9001 10.5001 80.7201 9.15008 81.4901C8.05008 82.1101 7.33008 82.1901 7.33008 83.0401C7.33008 83.6601 7.60008 84.5601 10.1501 84.5601C11.1501 84.5601 12.3401 84.7101 12.3001 85.6801C12.2301 86.9301 10.4801 86.7501 10.4801 87.5301C10.4601 88.3501 11.3301 89.1501 13.4501 89.3001C14.2201 89.3501 15.0001 89.1301 15.6401 88.6801C15.5901 88.5301 15.5701 88.3801 15.5701 88.2101C15.5901 87.5601 16.0901 87.1101 16.6401 86.6901C16.8401 86.5401 16.8601 86.4401 16.8601 86.4401C16.8601 86.3901 16.8101 86.1401 15.9901 85.4701C15.6401 85.2001 15.3701 84.8701 15.1701 84.4701C14.6201 84.0001 14.0701 83.4701 13.5201 82.9001C13.1701 82.9501 12.8201 82.9701 12.4701 82.9701C11.5501 82.9501 10.6001 82.8501 9.70008 82.6501C9.68008 82.6501 9.65008 82.6301 9.63008 82.6001C9.61008 82.5701 9.61008 82.5501 9.61008 82.5301C9.61008 82.5101 9.63008 82.4801 9.66008 82.4601C9.68008 82.4401 9.71008 82.4401 9.73008 82.4401C10.9001 82.7101 12.1201 82.8101 13.3201 82.7101C11.7501 81.0101 10.3501 79.1901 9.15008 77.2201C9.13008 77.2001 9.13008 77.1701 9.13008 77.1501C9.13008 77.1301 9.15008 77.1001 9.18008 77.0801C9.20008 77.0601 9.23008 77.0601 9.25008 77.0601C9.27008 77.0601 9.30008 77.0801 9.32008 77.1101C10.5201 79.0301 11.8901 80.8301 13.4101 82.5001C13.3401 81.2501 13.3601 79.9801 13.5301 78.7301C13.5301 78.7301 13.5367 78.7134 13.5501 78.6801L13.5701 78.6601C13.5701 78.6601 13.5901 78.64 13.6201 78.64H13.6701C13.6701 78.64 13.6901 78.6401 13.7201 78.6601C13.7401 78.6601 13.7401 78.6801 13.7401 78.6801C13.7401 78.6801 13.7601 78.7001 13.7601 78.7301V78.7801C13.5901 80.1001 13.5601 81.4501 13.6601 82.7701C14.0801 83.2201 14.5301 83.6401 14.9601 84.0401C14.8101 83.5201 14.8101 82.9701 15.0301 82.4701C15.2301 81.9701 15.6001 81.5501 16.0801 81.3001C16.5301 81.0301 17.0301 80.8801 17.5301 80.8501C17.6501 80.8501 17.7501 80.8501 17.8801 80.8701C17.8801 80.3001 17.8301 79.7001 17.6801 79.1501C16.9801 78.5301 16.3801 77.9001 15.8101 77.2501L15.8301 77.2301Z" fill="#015844"/>
<path d="M19.57 83.16C19.1 82.01 17.97 80.49 16.23 81.64C14.98 82.46 14.93 84.08 16.23 85.13C17.33 86 17.63 86.4 16.75 87.08C15.88 87.75 15.58 88.4 16.65 89.32C17.72 90.24 18.42 90.89 17.97 91.54C17.2 92.61 15.08 93.11 16.35 94.33C16.85 94.85 17.42 95.3 18.05 95.65V95.43C18.03 95.18 18.05 94.91 18.12 94.68C18.19 94.43 18.32 94.21 18.49 94.01C18.61 93.89 18.76 93.79 18.91 93.71C19.08 93.64 19.26 93.61 19.43 93.61C19.7 93.61 19.98 93.68 20.23 93.83C20.53 94.03 20.88 94.15 21.25 94.15C21.52 94.15 21.77 94.08 22 93.95C22.2 93.83 22.32 93.63 22.4 93.4C21.43 93.2 20.48 92.88 19.61 92.4C19.59 92.4 19.59 92.38 19.56 92.38C19.56 92.38 19.54 92.36 19.54 92.33V92.23L19.56 92.21C19.56 92.21 19.58 92.19 19.61 92.19H19.66C19.66 92.19 19.68 92.19 19.71 92.21C20.56 92.66 21.48 92.98 22.4 93.18C22.4 93.18 22.4167 93.1866 22.45 93.2V93.18C22.5 92.86 22.57 92.51 22.7 92.21C22.7 92.21 22.68 92.21 22.68 92.19C22.21 91.04 21.63 89.92 20.98 88.85C20.36 88.6 19.71 88.43 19.06 88.35C18.49 88.25 17.84 88.13 17.21 87.98C17.21 87.98 17.1934 87.9733 17.16 87.96L17.14 87.94C17.14 87.92 17.12 87.92 17.12 87.89V87.84C17.12 87.84 17.12 87.82 17.14 87.79L17.16 87.77C17.16 87.77 17.18 87.77 17.21 87.75H17.26C17.88 87.9 18.53 88.02 19.11 88.12C19.68 88.19 20.23 88.32 20.78 88.49C19.58 86.62 18.26 84.8 16.84 83.1C16.84 83.1 16.82 83.08 16.82 83.05V83C16.82 83 16.82 82.98 16.84 82.95C16.84 82.93 16.86 82.93 16.86 82.93C16.86 82.93 16.88 82.91 16.91 82.91H16.96C16.96 82.91 16.98 82.91 17.01 82.93C17.03 82.93 17.03 82.95 17.03 82.95C18.48 84.67 19.8 86.47 21 88.36C21.02 86.69 21.22 85.17 21.5 84.64C21.52 84.62 21.55 84.59 21.57 84.59H21.64C21.64 84.59 21.69 84.64 21.69 84.66V84.73C21.47 85.18 21.22 86.7 21.22 88.7C21.84 89.72 22.37 90.8 22.84 91.89C23.04 91.57 23.29 91.29 23.61 91.09C23.78 90.97 23.98 90.89 24.18 90.84V89.04C24.18 89.04 24.18 88.99 24.2 88.97C24.22 88.95 24.25 88.95 24.27 88.95C24.29 88.95 24.32 88.95 24.34 88.97C24.36 88.99 24.36 89.02 24.36 89.04V90.81H24.48C25.73 90.81 27.27 92.06 28.2 93.23C28.45 93.18 28.67 93.16 28.92 93.16C29.57 93.16 29.72 93.09 29.82 92.81C29.94 92.44 29.82 92.29 28.42 91.64C28.25 91.57 28.05 91.47 27.85 91.37C27.53 91.25 27.25 91.05 27.03 90.8C26.81 90.55 26.63 90.25 26.56 89.9C26.51 89.58 26.51 89.23 26.58 88.9C26.65 88.58 26.8 88.28 26.98 88C26.58 87.1 25.96 86.43 24.61 86.68C23.99 86.8 23.16 87.03 22.89 85.68C22.62 84.31 22.19 83.06 21.19 83.66C20.49 84.21 19.97 84.31 19.52 83.16H19.57Z" fill="#015844"/>
<path d="M40.1702 95.46C40.3702 94.36 40.0502 91.54 37.7802 92.39C35.9802 93.06 35.7102 92.94 35.5902 91.77C35.4702 90.6 34.0902 90 32.9502 90.02C31.8302 90.04 31.8502 90.32 31.4302 89.65C31.0102 88.98 28.3902 87.63 28.3902 87.63C28.0902 87.68 27.8202 87.83 27.5902 88.05C26.9702 88.85 26.4702 90.29 27.9402 90.99C29.4402 91.69 30.5802 91.71 30.2802 92.86C29.9102 94.26 28.3302 93.13 27.9602 94.18C27.7402 94.83 28.6802 96.6 30.3302 96C31.7802 95.48 33.7702 95.35 33.8702 96.5C34.0202 98.32 30.4302 98.17 32.2502 100.29C33.1202 101.29 35.1202 101.09 36.5202 100.89C37.1702 100.74 37.7402 100.37 38.1202 99.82C38.0202 99.32 37.9002 98.82 37.7202 98.35C36.3502 97.93 35.5002 97.88 34.7802 98.2H34.7102C34.7102 98.2 34.6602 98.18 34.6402 98.15C34.6402 98.13 34.6202 98.1 34.6402 98.05C34.6402 98.03 34.6602 98 34.6902 97.98C35.5602 97.61 36.4902 97.73 37.6102 98.05C36.8102 96.1 35.4202 94.96 33.9702 93.93C33.1002 94.1 32.2202 94.2 31.3302 94.23C31.1802 94.23 31.0302 94.23 30.8802 94.21H30.8302L30.8102 94.19C30.8102 94.19 30.7902 94.17 30.7902 94.14V94.09C30.7902 94.09 30.8102 94.04 30.8402 94.02C30.8602 94 30.8902 94 30.9102 94C31.8602 94.02 32.7802 93.95 33.7002 93.78L33.4002 93.56C31.8002 92.46 30.1602 91.32 29.3102 89.2V89.1C29.3102 89.1 29.3302 89.05 29.3802 89.05H29.4802C29.4802 89.05 29.5302 89.07 29.5302 89.12C30.3502 91.17 31.9002 92.24 33.5502 93.39C33.7002 93.49 33.8502 93.59 34.0002 93.69C34.0002 92.77 33.8002 91.84 33.4502 91C33.4502 91 33.4436 90.9833 33.4302 90.95V90.9C33.4302 90.9 33.4302 90.88 33.4502 90.85L33.4702 90.83C33.4702 90.83 33.4902 90.83 33.5202 90.81H33.5702C33.5702 90.81 33.5902 90.81 33.6202 90.83L33.6402 90.85C34.0402 91.77 34.2402 92.8 34.2102 93.79V93.81C35.5602 94.76 36.8502 95.83 37.6802 97.58C37.6602 97.31 37.6102 96.96 37.5602 96.61C37.4102 95.79 37.3402 94.96 37.3102 94.12V94.07L37.3302 94.05L37.3502 94.03H37.4502L37.4702 94.05L37.4902 94.07V94.12C37.5102 94.94 37.6102 95.77 37.7402 96.59C37.8402 97.11 37.8902 97.66 37.9102 98.21C38.0802 98.66 38.2102 99.11 38.3102 99.56C38.3802 99.44 38.4602 99.31 38.5102 99.16C38.8302 98.41 39.2102 97.59 39.5302 96.92C39.8802 96.5 40.0502 96 40.1802 95.5L40.1702 95.46Z" fill="#015844"/>
<path d="M37.4001 101.12C36.5801 101.42 35.6801 101.54 34.8101 101.52C33.6101 101.52 32.7401 101.25 32.1201 100.65C32.1001 100.63 32.0501 100.58 32.0201 100.55C31.7501 100.82 31.4701 101.12 31.2501 101.45C31.2301 102.6 31.5001 103.72 32.0501 104.72C32.0701 104.74 32.0701 104.77 32.0701 104.79C32.0701 104.81 32.0501 104.84 32.0201 104.86C32.0001 104.88 31.9701 104.88 31.9501 104.88C31.9301 104.88 31.9001 104.86 31.8801 104.83C31.3301 103.88 31.0601 102.81 31.0601 101.74C29.8601 103.59 29.1401 105.68 28.9601 107.85C28.9601 107.87 28.9401 107.9 28.9401 107.92C28.9201 107.94 28.8901 107.94 28.8701 107.94C28.8701 107.94 28.8201 107.92 28.8001 107.89C28.7801 107.87 28.7801 107.84 28.7801 107.82C28.9501 105.7 29.6501 103.65 30.7801 101.83C30.2101 102.23 29.2301 102.93 28.6601 103.43C28.6401 103.45 28.6101 103.45 28.5901 103.45C28.5701 103.45 28.5401 103.43 28.5201 103.4C28.5001 103.38 28.5001 103.35 28.5001 103.33C28.5001 103.31 28.5001 103.28 28.5201 103.26C29.3901 102.51 31.0601 101.36 31.1601 101.29C31.4101 100.97 31.6801 100.64 31.9801 100.34C31.8301 100.19 31.7101 99.99 31.6301 99.79C31.5601 99.59 31.5101 99.37 31.5301 99.14C31.6001 98.44 32.2001 98.02 32.7501 97.67C32.9201 97.55 33.0701 97.45 33.2201 97.35C33.0501 97.15 32.9201 97 32.8201 96.9C32.5701 96.68 32.2701 96.5 31.9701 96.38C31.6501 96.28 31.3201 96.23 30.9701 96.26C30.9001 96.28 30.8501 96.28 30.7701 96.31C30.5501 96.38 30.3001 96.46 30.0501 96.46C29.3301 96.83 29.6001 97.61 30.1201 97.91C30.2701 97.98 30.4201 98.11 30.4901 98.26C30.5901 98.41 30.6401 98.58 30.6401 98.76C30.6401 98.94 30.5901 99.11 30.5201 99.26C30.4501 99.41 30.3001 99.53 30.1501 99.63C29.2801 100.2 28.2801 100.55 27.2301 100.65C25.8101 100.9 25.2101 101.47 25.1601 102.17C25.0601 103.72 26.9601 103.14 27.4801 103.72C27.6301 103.89 27.7301 104.07 27.8001 104.29C27.8701 104.49 27.9001 104.71 27.8701 104.94C27.8401 105.17 27.8001 105.36 27.6701 105.56C27.5701 105.76 27.4201 105.91 27.2501 106.06C27.0501 106.23 26.8801 106.46 26.7801 106.73C26.6801 106.98 26.6101 107.25 26.6301 107.53C26.6301 107.8 26.7001 108.08 26.8301 108.33C26.9601 108.58 27.1301 108.8 27.3301 108.98C28.2501 109.73 29.9701 109.3 30.2501 108.03C30.5001 106.78 30.1501 106.01 31.0701 105.69C31.9901 105.37 32.9901 106.94 34.2601 106.11C35.5301 105.29 33.8401 104.04 33.7901 102.94C33.7401 101.84 34.7901 101.59 35.4401 102.17C36.0901 102.74 37.0601 103.67 37.8101 103.02C38.3101 102.57 38.1801 101.72 37.4401 101.12H37.4001Z" fill="#015844"/>
<path d="M52.47 104.49C53.29 103.49 53.22 101.7 51.27 100.75C49.52 99.9 52.84 98.7 51.67 97.46C50.5 96.19 49.8 96.81 47.75 96.69C45.7 96.57 47.13 94.97 45.93 93.52C45.36 92.82 44.48 92.87 43.54 93.35C42.47 94.02 40.42 96.37 39.37 98.51C39.94 98.39 40.49 98.29 40.99 98.19C42.46 97.49 43.81 96.54 44.98 95.42C45 95.4 45.03 95.4 45.05 95.37C45.07 95.37 45.1 95.37 45.12 95.39C45.14 95.41 45.14 95.44 45.14 95.46C45.14 95.48 45.14 95.51 45.12 95.53C44.12 96.53 42.97 97.35 41.73 98.02C43.43 97.75 44.67 97.75 45.87 98.22C46.84 98.49 49.51 98.87 50.56 98.42C50.58 98.42 50.61 98.4 50.66 98.42C50.68 98.42 50.71 98.44 50.73 98.47V98.57C50.73 98.57 50.71 98.62 50.68 98.64C49.78 99.01 47.91 98.84 46.71 98.64C47.88 99.36 49.1 100.64 50.73 102.66C50.75 102.68 50.75 102.71 50.75 102.73C50.75 102.75 50.73 102.78 50.7 102.8C50.68 102.82 50.65 102.82 50.63 102.82C50.61 102.82 50.58 102.8 50.56 102.77C48.96 100.75 47.77 99.53 46.59 98.8C47.49 99.72 47.46 100.45 47.41 101.37C47.41 101.39 47.39 101.42 47.39 101.44C47.37 101.46 47.34 101.46 47.32 101.46C47.32 101.46 47.27 101.44 47.25 101.41C47.23 101.38 47.23 101.36 47.23 101.34C47.28 100.24 47.3 99.54 45.83 98.4C44.58 97.9 43.29 97.95 41.44 98.28C42.04 98.58 42.51 99.03 42.86 99.58C42.86 99.6 42.88 99.6 42.88 99.63V99.68C42.88 99.68 42.88 99.7 42.86 99.73L42.84 99.75C42.84 99.75 42.82 99.77 42.79 99.77H42.74C42.74 99.77 42.72 99.77 42.69 99.75L42.67 99.73C42.3 99.13 41.72 98.66 41.05 98.38C40.5 98.48 39.93 98.6 39.3 98.75C39.03 99.32 38.85 99.92 38.78 100.55C38.8 100.82 38.9 101.1 39.03 101.35C39.18 101.6 39.35 101.82 39.58 101.97C41.87 103.72 42.07 101.27 44.02 101.05C45.59 100.88 44.94 102.45 45.69 103.77C46.44 105.07 47.34 104.02 47.91 103.6C48.48 103.18 48.83 102.88 49.43 104.07C49.58 104.34 49.78 104.57 50.03 104.77C50.28 104.94 50.58 105.07 50.88 105.09C51.18 105.14 51.5 105.09 51.8 104.99C52 104.87 52.27 104.69 52.47 104.47V104.49Z" fill="#015844"/>
<path d="M27.3302 100.22C28.6502 100 29.8002 99.57 29.8002 98.82C29.8002 98.32 28.9502 98.05 29.1802 97.07C29.1802 96.87 29.1602 96.7 29.0802 96.5C29.0602 96.5 29.0302 96.52 29.0102 96.5C28.2902 96.35 27.5402 96.2501 26.7902 96.2301C25.9202 96.8501 25.1702 97.63 24.5202 98.47C24.5202 98.49 24.5002 98.49 24.4702 98.49H24.4202C24.4202 98.49 24.3702 98.49 24.3502 98.47L24.3302 98.45C24.3302 98.45 24.3102 98.43 24.3102 98.4V98.35C24.3102 98.35 24.3102 98.33 24.3302 98.3C24.9302 97.5 25.6302 96.8 26.4002 96.18C25.1302 96.23 23.8802 96.48 22.6802 96.95C22.2102 97.9 21.5802 98.7701 20.8602 99.5401C20.8602 99.5401 20.8402 99.56 20.8102 99.56H20.7602C20.7602 99.56 20.7402 99.5601 20.7102 99.5401C20.6902 99.5401 20.6902 99.52 20.6902 99.52C20.6902 99.52 20.6702 99.5 20.6702 99.47V99.42C20.6702 99.42 20.6702 99.4 20.6902 99.37C20.6902 99.35 20.7102 99.35 20.7102 99.35C21.3602 98.65 21.9302 97.88 22.3802 97.03C21.2102 97.48 19.9602 97.73 18.7102 97.75C18.3602 97.75 18.0402 97.73 17.6902 97.7C17.6702 97.7 17.6402 97.68 17.6202 97.65C17.6002 97.63 17.6002 97.6 17.6002 97.58C17.6002 97.56 17.6202 97.5301 17.6502 97.5101C17.6802 97.4901 17.7002 97.49 17.7202 97.49C19.1402 97.64 20.5902 97.47 21.9102 96.97C21.5102 96.82 21.1102 96.62 20.7602 96.4C20.4102 96.2 20.0402 96 19.6602 95.83C19.6402 95.83 19.6402 95.81 19.6402 95.81L19.6202 95.7901V95.69C19.6202 95.69 19.6402 95.64 19.6702 95.64H19.7402C20.1402 95.81 20.5102 96.01 20.8602 96.21C21.3102 96.53 21.8102 96.73 22.3602 96.83L22.5102 96.78C23.7302 96.31 25.0302 96.0301 26.3502 95.9801C25.5002 95.4601 23.9602 94.4801 23.9602 94.4801C23.9402 94.4601 23.9102 94.43 23.9102 94.41C23.9102 94.39 23.9102 94.36 23.9302 94.34C23.9502 94.32 23.9802 94.2901 24.0002 94.2901C24.0202 94.2901 24.0502 94.29 24.0702 94.31C24.0902 94.33 26.1202 95.6301 26.7902 96.0101C27.4402 96.0301 28.0602 96.11 28.6902 96.21C28.4202 96.06 28.1702 95.81 27.9902 95.56C27.8202 95.34 27.6902 95.0601 27.6202 94.7901C27.5702 94.5201 27.5702 94.22 27.6202 93.92C27.7202 93.77 27.8202 93.62 27.9402 93.5C26.9202 92.23 24.9002 90.86 23.9702 91.5C22.5002 92.52 23.2502 93.74 22.2702 94.27C21.9202 94.47 21.5502 94.5701 21.1502 94.5401C20.7502 94.5101 20.3802 94.39 20.0502 94.17C19.8802 94.07 19.6802 94.02 19.4802 94.02C19.2802 94.02 19.0802 94.09 18.9302 94.19C18.7602 94.29 18.6302 94.46 18.5602 94.64C18.4902 94.81 18.4402 95.01 18.4602 95.21C18.4802 96.38 18.6802 96.3801 17.6902 96.4801C16.7702 96.5801 14.9702 96.7 14.7002 98.15C14.4302 99.6 15.8702 100.05 16.3702 100.07C17.5702 100.14 18.7102 99.2 19.1102 100.24C19.5102 101.26 19.5302 102.06 20.2802 102.04C21.8502 101.99 22.0302 100.24 23.2002 100.17C23.7202 100.15 24.5502 100.74 24.9702 101.27C25.3202 100.82 26.0402 100.47 27.3402 100.25L27.3302 100.22Z" fill="#015844"/>
<path d="M60.55 106.56C58.03 105.71 54.79 104.32 54.79 104.32C54.52 104.62 54.17 104.84 53.79 104.94C55.44 105.74 58.63 107.18 58.63 107.18C58.95 106.66 60.1 106.48 60.55 106.56Z" fill="#015844"/>
<path d="M57.7602 108.55C54.7902 108.25 53.1202 109.8 54.5902 109.97C57.5102 110.34 59.4302 108.7 57.7602 108.55Z" fill="#015844"/>
<path d="M61.6002 107.08C60.2502 106.58 58.6302 107.5 59.4802 107.95C60.6302 108.55 62.9502 107.6 61.6002 107.08Z" fill="#015844"/>
<path d="M56.73 108.03C55.66 107.56 53.54 106.63 51.57 105.69C50.85 106.06 50.17 106.49 49.52 106.96C51.22 107.86 52.86 108.81 53.46 109.15C53.88 108.73 54.41 108.4 54.96 108.2C55.53 108 56.16 107.95 56.73 108.03Z" fill="#015844"/>
<path d="M50.5999 0C41.4199 0 32.4399 2.72 24.8099 7.83C17.1799 12.94 11.2199 20.18 7.69989 28.66C4.17989 37.14 3.25989 46.47 5.05989 55.5C6.85989 64.5 11.2699 72.79 17.7599 79.27C24.2499 85.76 32.5299 90.19 41.5299 91.97C50.5299 93.77 59.8599 92.84 68.3399 89.33C76.8199 85.81 84.0799 79.85 89.1699 72.22C94.2799 64.59 96.9999 55.61 96.9999 46.43C96.9999 40.34 95.7999 34.28 93.4599 28.67C91.1199 23.03 87.6999 17.92 83.4099 13.6C79.0899 9.27999 73.9799 5.86999 68.3399 3.51999C62.7299 1.19999 56.6899 0 50.6099 0H50.5999Z" fill="#A78930"/>
<path d="M93.721 46.5272C93.775 22.7238 74.5312 3.38359 50.7389 3.32961C26.9465 3.27563 7.61518 22.5283 7.56117 46.3317C7.50716 70.1352 26.7509 89.4754 50.5433 89.5294C74.3356 89.5834 93.6669 70.3307 93.721 46.5272Z" fill="#00B3DE"/>
<path d="M50.6499 82.94C70.8028 82.94 87.1399 66.6028 87.1399 46.45C87.1399 26.2971 70.8028 9.95996 50.6499 9.95996C30.497 9.95996 14.1599 26.2971 14.1599 46.45C14.1599 66.6028 30.497 82.94 50.6499 82.94Z" fill="#EC3341"/>
<path d="M50.64 76.3C67.1423 76.3 80.52 62.9223 80.52 46.42C80.52 29.9178 67.1423 16.54 50.64 16.54C34.1377 16.54 20.76 29.9178 20.76 46.42C20.76 62.9223 34.1377 76.3 50.64 76.3Z" fill="#509C45"/>
<path d="M49.8201 93.71C50.3901 94.28 50.7901 95.01 50.9401 95.83C51.7601 95.33 52.9601 94.01 52.5601 93.41C52.2901 92.94 50.8401 93.04 49.8201 93.71Z" fill="#A78930"/>
<path d="M48.4502 94.51C48.4502 94.51 48.3502 94.53 48.3002 94.56C48.2502 94.58 48.2302 94.63 48.2002 94.68C48.1802 94.73 48.1802 94.78 48.1802 94.85C48.1802 94.9 48.2302 94.95 48.2502 95C48.3002 95.05 48.3502 95.07 48.4002 95.07C48.4502 95.07 48.5202 95.07 48.5702 95.05C48.6202 95.03 48.6702 95 48.6902 94.95C48.7102 94.9 48.7402 94.85 48.7402 94.8C48.7402 94.73 48.7202 94.65 48.6702 94.6C48.6002 94.55 48.5202 94.5 48.4502 94.5V94.51Z" fill="#A78930"/>
<path d="M49.5202 93.9401C49.5202 93.9401 49.5002 93.8401 49.4702 93.7901C49.4502 93.7401 49.4002 93.7201 49.3502 93.6901C49.3002 93.6601 49.2502 93.6701 49.1802 93.6701C49.1302 93.6701 49.0802 93.7201 49.0302 93.7401C48.9802 93.7901 48.9602 93.8401 48.9602 93.8901C48.9602 93.9401 48.9602 94.0101 48.9802 94.0601C49.0002 94.1101 49.0302 94.1601 49.0802 94.1801C49.1302 94.2001 49.1802 94.2301 49.2302 94.2301C49.2802 94.2301 49.3002 94.2301 49.3302 94.2101C49.3502 94.1901 49.4002 94.1901 49.4302 94.1601C49.4502 94.1401 49.4802 94.1101 49.4802 94.0601C49.5302 94.0101 49.5302 93.9601 49.5302 93.9401H49.5202Z" fill="#A78930"/>
<path d="M49.4202 94.6401C49.4202 94.6401 49.3201 94.6601 49.2701 94.6901C49.2201 94.7101 49.2002 94.7601 49.1702 94.8101C49.1502 94.8601 49.1501 94.9101 49.1501 94.9801C49.1501 95.0301 49.2001 95.0801 49.2201 95.1301C49.2701 95.1801 49.3201 95.2001 49.3701 95.2001C49.4201 95.2001 49.4901 95.2001 49.5401 95.1801C49.5901 95.1601 49.6401 95.1301 49.6601 95.0801C49.6801 95.0301 49.7102 94.9801 49.7102 94.9301C49.7102 94.8801 49.7101 94.8601 49.6901 94.8301C49.6701 94.8001 49.6702 94.7601 49.6402 94.7301C49.6202 94.7101 49.5901 94.6801 49.5401 94.6801C49.4901 94.6301 49.4402 94.6301 49.4202 94.6301V94.6401Z" fill="#A78930"/>
<path d="M50.1201 95.33C50.1201 95.33 50.0201 95.3501 49.9701 95.3801C49.9201 95.4001 49.9001 95.4501 49.8701 95.5001C49.8501 95.5501 49.8501 95.6 49.8501 95.67C49.8501 95.72 49.9001 95.7701 49.9201 95.8201C49.9701 95.8701 50.0201 95.89 50.0701 95.89C50.1201 95.89 50.1901 95.8901 50.2401 95.8701C50.2901 95.8501 50.3401 95.8201 50.3601 95.7701C50.3801 95.7201 50.4101 95.6701 50.4101 95.6201C50.4101 95.5501 50.3901 95.47 50.3401 95.42C50.2701 95.37 50.1901 95.3201 50.1201 95.3201V95.33Z" fill="#A78930"/>
<path d="M49.1501 95.4801C49.1501 95.4801 49.0501 95.5001 49.0001 95.5301C48.9501 95.5501 48.9301 95.6001 48.9001 95.6501C48.8801 95.7001 48.8801 95.7501 48.8801 95.8201C48.8801 95.8701 48.9301 95.9201 48.9501 95.9701C49.0001 96.0201 49.0501 96.0401 49.1001 96.0401C49.1501 96.0401 49.2201 96.0401 49.2701 96.0201C49.3201 96.0001 49.3701 95.9701 49.3901 95.9201C49.4101 95.8701 49.4401 95.8201 49.4401 95.7701C49.4401 95.7001 49.4201 95.6201 49.3701 95.5701C49.3001 95.5201 49.2201 95.4701 49.1501 95.4701V95.4801Z" fill="#A78930"/>
<path d="M39.2501 104.54C38.6301 105.14 38.2501 106.36 38.8301 106.73C39.5301 107.18 40.7301 105.88 40.7301 105.88C40.3601 105.33 39.8601 104.88 39.2601 104.53L39.2501 104.54Z" fill="#A78930"/>
<path d="M40.4902 103.99C40.4902 103.99 40.4702 103.89 40.4402 103.84C40.4202 103.79 40.3702 103.77 40.3202 103.74C40.2702 103.71 40.2202 103.72 40.1502 103.72C40.1002 103.72 40.0502 103.77 40.0002 103.79C39.9502 103.84 39.9302 103.89 39.9302 103.94C39.9302 103.99 39.9302 104.06 39.9502 104.11C39.9702 104.16 40.0002 104.21 40.0502 104.23C40.1002 104.25 40.1502 104.28 40.2002 104.28C40.2702 104.28 40.3502 104.26 40.4002 104.21C40.4702 104.14 40.5002 104.06 40.5002 103.99H40.4902Z" fill="#A78930"/>
<path d="M41.1401 103.69C41.1401 103.69 41.0401 103.71 40.9901 103.74C40.9401 103.76 40.9201 103.81 40.8901 103.86C40.8701 103.91 40.8701 103.96 40.8701 104.03C40.8701 104.08 40.9201 104.13 40.9401 104.18C40.9901 104.23 41.0401 104.25 41.0901 104.25C41.1401 104.25 41.2101 104.25 41.2601 104.23C41.3101 104.21 41.3601 104.18 41.3801 104.13C41.4001 104.08 41.4301 104.03 41.4301 103.98C41.4301 103.91 41.4101 103.83 41.3601 103.78C41.2901 103.73 41.2101 103.68 41.1401 103.68V103.69Z" fill="#A78930"/>
<path d="M41.0201 104.66C41.0201 104.66 40.9201 104.68 40.8701 104.71C40.8201 104.73 40.8001 104.78 40.7701 104.83C40.7401 104.88 40.7501 104.93 40.7501 105C40.7501 105.05 40.8001 105.1 40.8201 105.15C40.8701 105.2 40.9201 105.22 40.9701 105.22C41.0201 105.22 41.0901 105.22 41.1401 105.2C41.1901 105.18 41.2401 105.15 41.2601 105.1C41.2801 105.05 41.3101 105 41.3101 104.95C41.3101 104.9 41.3101 104.88 41.2901 104.85C41.2701 104.82 41.2701 104.78 41.2401 104.75C41.2201 104.73 41.1901 104.7 41.1401 104.7C41.0901 104.65 41.0701 104.65 41.0201 104.65V104.66Z" fill="#A78930"/>
<path d="M21.1902 102.67C20.5202 103.99 20.6702 105.56 21.1202 105.94C21.6902 106.41 23.4602 104.39 23.6602 103.82C23.0102 103.17 22.1102 102.75 21.1902 102.67Z" fill="#A78930"/>
<path d="M22.2102 102.04C22.2102 102.04 22.2302 102.14 22.2602 102.19C22.2902 102.24 22.3302 102.26 22.3802 102.29C22.4302 102.32 22.4802 102.31 22.5502 102.31C22.6002 102.31 22.6502 102.26 22.7002 102.24C22.7502 102.19 22.7702 102.14 22.7702 102.09C22.7702 102.04 22.7702 101.97 22.7502 101.92C22.7302 101.87 22.7002 101.82 22.6502 101.8C22.6002 101.78 22.5502 101.75 22.5002 101.75C22.4302 101.75 22.3502 101.77 22.3002 101.82C22.2302 101.92 22.2002 101.97 22.2002 102.04H22.2102Z" fill="#A78930"/>
<path d="M23.0603 101.82C23.0603 101.82 23.0803 101.92 23.1103 101.97C23.1403 102.02 23.1803 102.04 23.2303 102.07C23.2803 102.1 23.3303 102.09 23.4003 102.09C23.4503 102.09 23.5003 102.04 23.5503 102.02C23.6003 101.97 23.6203 101.92 23.6203 101.87C23.6203 101.82 23.6203 101.75 23.6003 101.7C23.5803 101.65 23.5503 101.6 23.5003 101.58C23.4503 101.56 23.4003 101.53 23.3503 101.53C23.2803 101.53 23.2003 101.55 23.1503 101.6C23.0803 101.67 23.0503 101.75 23.0503 101.82H23.0603Z" fill="#A78930"/>
<path d="M23.6102 102.44C23.6102 102.44 23.5102 102.46 23.4602 102.49C23.4102 102.52 23.3902 102.56 23.3602 102.61C23.3302 102.66 23.3402 102.71 23.3402 102.78C23.3402 102.83 23.3902 102.88 23.4102 102.93C23.4602 102.98 23.5102 103 23.5602 103C23.6102 103 23.6802 103 23.7302 102.98C23.7802 102.96 23.8302 102.93 23.8502 102.88C23.8702 102.83 23.9002 102.78 23.9002 102.73C23.9002 102.66 23.8802 102.58 23.8302 102.53C23.7602 102.46 23.6802 102.43 23.6102 102.43V102.44Z" fill="#A78930"/>
<path d="M24.4801 102.49C24.4801 102.49 24.3801 102.51 24.3301 102.54C24.2801 102.57 24.2601 102.61 24.2301 102.66C24.2001 102.71 24.2101 102.76 24.2101 102.83C24.2101 102.88 24.2601 102.93 24.2801 102.98C24.3301 103.03 24.3801 103.05 24.4301 103.05C24.4801 103.05 24.5501 103.05 24.6001 103.03C24.6501 103.01 24.7001 102.98 24.7201 102.93C24.7401 102.88 24.7701 102.83 24.7701 102.78C24.7701 102.71 24.7501 102.63 24.7001 102.58C24.6301 102.53 24.5501 102.48 24.4801 102.48V102.49Z" fill="#A78930"/>
<path d="M24.4802 101.59C24.4802 101.59 24.4602 101.49 24.4302 101.44C24.4002 101.39 24.3602 101.37 24.3102 101.34C24.2602 101.31 24.2102 101.32 24.1402 101.32C24.0902 101.32 24.0402 101.37 23.9902 101.39C23.9402 101.44 23.9202 101.49 23.9202 101.54C23.9202 101.59 23.9202 101.66 23.9402 101.71C23.9602 101.76 23.9902 101.81 24.0402 101.83C24.0902 101.85 24.1402 101.88 24.1902 101.88C24.2602 101.88 24.3402 101.86 24.3902 101.81C24.4602 101.74 24.4902 101.66 24.4902 101.59H24.4802Z" fill="#A78930"/>
<path d="M22.9601 100.62C22.9601 100.62 22.8601 100.64 22.8101 100.67C22.7601 100.7 22.7401 100.74 22.7101 100.79C22.6801 100.84 22.6901 100.89 22.6901 100.96C22.6901 101.01 22.7401 101.06 22.7601 101.11C22.8101 101.16 22.8601 101.18 22.9101 101.18C22.9601 101.18 23.0301 101.18 23.0801 101.16C23.1301 101.14 23.1801 101.11 23.2001 101.06C23.2201 101.01 23.2501 100.96 23.2501 100.91C23.2501 100.84 23.2301 100.76 23.1801 100.71C23.1101 100.64 23.0301 100.61 22.9601 100.61V100.62Z" fill="#A78930"/>
<path d="M11.6401 90.89C11.6201 91.59 13.3101 92.24 14.7301 92.26C14.9001 91.46 14.9001 90.61 14.7301 89.82C13.4801 89.72 11.6401 90.19 11.6401 90.89Z" fill="#A78930"/>
<path d="M15.4001 92.22C15.4001 92.22 15.3001 92.24 15.2501 92.27C15.2001 92.3 15.1801 92.34 15.1501 92.39C15.1301 92.44 15.1301 92.49 15.1301 92.56C15.1301 92.61 15.1801 92.66 15.2001 92.71C15.2501 92.76 15.3001 92.78 15.3501 92.78C15.4001 92.78 15.4701 92.78 15.5201 92.76C15.5701 92.74 15.6201 92.71 15.6401 92.66C15.6601 92.61 15.6901 92.56 15.6901 92.51C15.6901 92.44 15.6701 92.36 15.6201 92.31C15.5501 92.26 15.4701 92.21 15.4001 92.21V92.22Z" fill="#A78930"/>
<path d="M16.2301 91.74C16.2301 91.74 16.1301 91.76 16.0801 91.79C16.0301 91.82 16.0101 91.86 15.9801 91.91C15.9501 91.96 15.9601 92.01 15.9601 92.08C15.9601 92.13 16.0101 92.18 16.0301 92.23C16.0801 92.28 16.1301 92.3 16.1801 92.3C16.2301 92.3 16.3001 92.3 16.3501 92.28C16.4001 92.26 16.4501 92.23 16.4701 92.18C16.4901 92.13 16.5201 92.08 16.5201 92.03C16.5201 91.96 16.5001 91.88 16.4501 91.83C16.3801 91.76 16.3001 91.73 16.2301 91.73V91.74Z" fill="#A78930"/>
<path d="M17.0201 91.22C17.0201 91.22 16.9201 91.24 16.8701 91.27C16.8201 91.3 16.8001 91.34 16.7701 91.39C16.7401 91.44 16.7501 91.49 16.7501 91.56C16.7501 91.61 16.8001 91.66 16.8201 91.71C16.8701 91.76 16.9201 91.78 16.9701 91.78C17.0201 91.78 17.0901 91.78 17.1401 91.76C17.1901 91.74 17.2401 91.71 17.2601 91.66C17.2801 91.61 17.3101 91.56 17.3101 91.51C17.3101 91.44 17.2901 91.36 17.2401 91.31C17.1701 91.24 17.0901 91.21 17.0201 91.21V91.22Z" fill="#A78930"/>
<path d="M15.53 91.0901C15.53 91.0901 15.43 91.1101 15.38 91.1401C15.33 91.1601 15.31 91.2101 15.28 91.2601C15.26 91.3101 15.26 91.3601 15.26 91.4301C15.26 91.4801 15.31 91.5301 15.33 91.5801C15.38 91.6301 15.43 91.6501 15.48 91.6501C15.53 91.6501 15.6 91.6501 15.65 91.6301C15.7 91.6101 15.75 91.5801 15.77 91.5301C15.79 91.4801 15.82 91.4301 15.82 91.3801C15.82 91.3101 15.8 91.2301 15.75 91.1801C15.68 91.1101 15.6 91.0801 15.53 91.0801V91.0901Z" fill="#A78930"/>
<path d="M16.3502 90.5C16.3502 90.5 16.2502 90.52 16.2002 90.55C16.1502 90.58 16.1302 90.62 16.1002 90.67C16.0702 90.72 16.0802 90.77 16.0802 90.84C16.0802 90.89 16.1302 90.94 16.1502 90.99C16.2002 91.04 16.2502 91.06 16.3002 91.06C16.3502 91.06 16.4202 91.06 16.4702 91.04C16.5202 91.02 16.5702 90.99 16.5902 90.94C16.6102 90.89 16.6402 90.84 16.6402 90.79C16.6402 90.72 16.6202 90.64 16.5702 90.59C16.5002 90.54 16.4202 90.49 16.3502 90.49V90.5Z" fill="#A78930"/>
<path d="M15.6001 89.8C15.6001 89.8 15.5001 89.82 15.4501 89.85C15.4001 89.87 15.3801 89.92 15.3501 89.97C15.3301 90.02 15.3301 90.07 15.3301 90.14C15.3301 90.19 15.3801 90.24 15.4001 90.29C15.4501 90.34 15.5001 90.36 15.5501 90.36C15.6001 90.36 15.6701 90.36 15.7201 90.34C15.7701 90.32 15.8201 90.29 15.8401 90.24C15.8601 90.19 15.8901 90.14 15.8901 90.09C15.8901 90.02 15.8701 89.94 15.8201 89.89C15.7501 89.84 15.6701 89.79 15.6001 89.79V89.8Z" fill="#A78930"/>
<path d="M3.41009 67.7699C2.44009 66.9499 0.620092 66.97 0.370092 67.35C0.100092 67.8 1.09009 68.9699 2.04009 69.6699C2.61009 69.0999 3.06009 68.4699 3.41009 67.7699Z" fill="#A78930"/>
<path d="M2.50999 69.9399C2.43999 69.9399 2.35999 69.9599 2.30999 70.0099C2.25999 70.0599 2.23999 70.1299 2.23999 70.2099C2.23999 70.2899 2.25999 70.3599 2.30999 70.4099C2.35999 70.4599 2.42999 70.4799 2.50999 70.4799C2.58999 70.4799 2.65999 70.4599 2.70999 70.4099C2.75999 70.3599 2.77999 70.2899 2.77999 70.2099C2.77999 70.1299 2.75999 70.0599 2.70999 70.0099C2.65999 69.9899 2.58999 69.9399 2.50999 69.9399Z" fill="#A78930"/>
<path d="M3.40989 69.9399C3.33989 69.9399 3.25989 69.9599 3.20989 70.0099C3.15989 70.0599 3.13989 70.1299 3.13989 70.2099C3.13989 70.2899 3.15989 70.3599 3.20989 70.4099C3.25989 70.4599 3.32989 70.4799 3.40989 70.4799C3.48989 70.4799 3.55989 70.4599 3.60989 70.4099C3.65989 70.3599 3.67989 70.2899 3.67989 70.2099C3.67989 70.1299 3.65989 70.0599 3.60989 70.0099C3.55989 69.9899 3.48989 69.9399 3.40989 69.9399Z" fill="#A78930"/>
<path d="M3.33006 69.54C3.40006 69.54 3.48006 69.52 3.53006 69.47C3.58006 69.42 3.60006 69.35 3.60006 69.27C3.60006 69.19 3.58006 69.12 3.53006 69.07C3.48006 69.02 3.41006 69 3.33006 69C3.25006 69 3.18006 69.02 3.13006 69.07C3.08006 69.12 3.06006 69.19 3.06006 69.27C3.06006 69.32 3.06006 69.34 3.08006 69.37C3.10006 69.4 3.10006 69.44 3.13006 69.47C3.15006 69.49 3.18006 69.52 3.23006 69.52C3.25006 69.54 3.30006 69.54 3.33006 69.54Z" fill="#A78930"/>
<path d="M4.35008 68.99C4.28008 68.99 4.20008 69.01 4.15008 69.06C4.10008 69.11 4.08008 69.18 4.08008 69.26C4.08008 69.34 4.10008 69.41 4.15008 69.46C4.20008 69.51 4.27008 69.53 4.35008 69.53C4.43008 69.53 4.50008 69.51 4.55008 69.46C4.60008 69.41 4.62008 69.34 4.62008 69.26C4.62008 69.18 4.60008 69.11 4.55008 69.06C4.50008 69.04 4.43008 68.99 4.35008 68.99Z" fill="#A78930"/>
<path d="M4.35006 68.22C4.35006 68.22 4.35006 68.15 4.33006 68.12C4.31006 68.09 4.31006 68.05 4.28006 68.02C4.25006 67.99 4.23006 67.97 4.18006 67.97C4.16006 67.95 4.11006 67.95 4.08006 67.95C4.01006 67.95 3.93006 67.97 3.88006 68.02C3.83006 68.07 3.81006 68.14 3.81006 68.22C3.81006 68.3 3.83006 68.37 3.88006 68.42C3.93006 68.47 4.00006 68.49 4.08006 68.49C4.16006 68.49 4.23006 68.47 4.28006 68.42C4.33006 68.37 4.35006 68.3 4.35006 68.22Z" fill="#A78930"/>
<path d="M87.3401 32.9299C88.2901 32.9299 89.0401 32.1599 89.0401 31.2299C89.0401 30.2999 88.2701 29.5299 87.3401 29.5299C86.4101 29.5299 85.6401 30.2999 85.6401 31.2299C85.6401 32.1799 86.4101 32.9299 87.3401 32.9299Z" fill="#A78930"/>
<path d="M66.4802 11.3C66.7802 11.18 67.0502 10.9499 67.2502 10.6799C67.4502 10.4099 67.5502 10.0799 67.5502 9.72995C67.5502 9.37995 67.4502 9.05995 67.2502 8.77995C67.0502 8.50995 66.8002 8.27995 66.4802 8.15995C66.1802 8.03995 65.8302 7.98995 65.5102 8.05995C65.1902 8.12995 64.8902 8.27995 64.6402 8.52995C64.3902 8.77995 64.2402 9.07994 64.1702 9.39994C64.1002 9.71994 64.1502 10.0699 64.2702 10.3699C64.4402 10.7899 64.7702 11.1199 65.1902 11.2899C65.6102 11.4599 66.0902 11.4599 66.4902 11.2899L66.4802 11.3Z" fill="#A78930"/>
<path d="M36.08 11.3C36.38 11.18 36.65 10.9499 36.85 10.6799C37.05 10.4099 37.15 10.0799 37.15 9.72995C37.15 9.37995 37.05 9.05995 36.85 8.77995C36.65 8.50995 36.4 8.27995 36.08 8.15995C35.78 8.03995 35.43 7.98995 35.11 8.05995C34.79 8.12995 34.49 8.27995 34.24 8.52995C33.99 8.77995 33.84 9.07994 33.77 9.39994C33.7 9.71994 33.75 10.0699 33.87 10.3699C34.04 10.7899 34.37 11.1199 34.79 11.2899C35.19 11.4599 35.66 11.4599 36.09 11.2899L36.08 11.3Z" fill="#A78930"/>
<path d="M13.9301 32.9299C14.8801 32.9299 15.6301 32.1599 15.6301 31.2299C15.6301 30.2999 14.8601 29.5299 13.9301 29.5299C13.0001 29.5299 12.2301 30.2999 12.2301 31.2299C12.2101 32.1799 12.9801 32.9299 13.9301 32.9299Z" fill="#A78930"/>
<path d="M13.9301 63.36C14.8801 63.36 15.6301 62.59 15.6301 61.66C15.6301 60.73 14.8601 59.96 13.9301 59.96C13.0001 59.96 12.2301 60.73 12.2301 61.66C12.2101 62.58 12.9801 63.36 13.9301 63.36Z" fill="#A78930"/>
<path d="M34.7802 81.5899C34.4802 81.7099 34.2102 81.9399 34.0102 82.2099C33.8402 82.4799 33.7102 82.8099 33.7102 83.1599C33.7102 83.4799 33.8102 83.8299 34.0102 84.1099C34.2102 84.3799 34.4602 84.6099 34.7802 84.7299C35.0802 84.8499 35.4302 84.8999 35.7502 84.8299C36.0702 84.7599 36.3702 84.6099 36.6202 84.3599C36.8702 84.1099 37.0202 83.8099 37.0902 83.4899C37.1602 83.1699 37.1102 82.8199 36.9902 82.5199C36.8202 82.0999 36.4902 81.7699 36.0702 81.5999C35.6502 81.4299 35.1702 81.4299 34.7702 81.5999L34.7802 81.5899Z" fill="#A78930"/>
<path d="M65.1901 81.59C64.8901 81.71 64.6201 81.94 64.4201 82.21C64.2501 82.48 64.1201 82.81 64.1201 83.16C64.1201 83.48 64.2201 83.83 64.4201 84.11C64.6201 84.38 64.8701 84.61 65.1901 84.73C65.4901 84.85 65.8401 84.9 66.1601 84.83C66.4801 84.76 66.7801 84.61 67.0301 84.36C67.2801 84.11 67.4301 83.81 67.5001 83.49C67.5701 83.17 67.5201 82.82 67.4001 82.52C67.3301 82.32 67.2001 82.12 67.0301 81.97C66.8801 81.82 66.6801 81.7 66.4801 81.6C66.2801 81.53 66.0601 81.48 65.8301 81.48C65.6001 81.48 65.3801 81.5 65.1801 81.6L65.1901 81.59Z" fill="#A78930"/>
<path d="M87.3401 63.36C88.2901 63.36 89.0401 62.59 89.0401 61.66C89.0401 60.73 88.2701 59.96 87.3401 59.96C86.4101 59.96 85.6401 60.73 85.6401 61.66C85.6401 62.58 86.4101 63.36 87.3401 63.36Z" fill="#A78930"/>
<path d="M93.67 46.2L72.07 37.39L80.88 15.79L59.4 24.85L50.35 3.34998L41.54 24.95L19.94 16.14L29 37.64L7.5 46.67L29.1 55.48L20.29 77.08L41.79 68.02L50.82 89.52L59.63 67.92L81.23 76.73L72.17 55.25L93.67 46.2Z" fill="#A78930"/>
<path d="M58.7499 65.88L78.2799 73.83L70.0999 54.4L89.5299 46.22L70.0299 38.27L77.9799 18.74L58.5499 26.92L50.3699 7.45996L42.4199 26.99L22.8899 19.04L31.0699 38.47L11.6399 46.65L31.1699 54.6L23.1799 74.13L42.6399 65.95L50.7999 85.41L58.7499 65.88Z" fill="white"/>
<path d="M52.77 54.38C52.77 46.45 49.5 44.4 49.5 36.57C49.57 33.5 50.17 30.46 51.27 27.62C50.6 35.58 57.31 40.61 57.31 51.22C57.31 57.93 54.69 61.8 52.72 61.8C51.47 61.8 51.55 60.98 50.9 60.98C50.25 60.98 49.68 61.95 48.38 61.95C47.08 61.95 42.79 59.83 42.09 50.43C41.34 52.35 41.97 55.07 42.36 56.52C39.72 51.76 39.84 46.02 43.73 40.16C42.98 46.27 43.46 51.18 45.33 55.65C45.73 56.6 46.43 57.1 47.05 56.6C47.67 56.1 47.05 55.13 46.58 54.06C46.11 52.99 40.89 41.51 48.73 32.09C47.83 40.35 51.15 45.51 51.15 49.38C51.15 53.25 48.83 58.43 51.08 58.43C52.45 58.41 52.78 55.71 52.78 54.41L52.77 54.38Z" fill="#EC3341"/>
<path d="M55.5601 60.12C57.4801 58.7 59.0501 56.85 60.1501 54.73C61.2501 52.61 61.8201 50.27 61.8701 47.87C61.8701 41.24 55.1901 35.85 54.0601 32.01C54.0601 38.15 58.2501 42.01 58.2501 50.24C58.2301 57.87 55.5601 60.12 55.5601 60.12Z" fill="#EC3341"/>
<path d="M48.4799 103.71C48.3599 103.73 48.23 103.78 48.16 103.88C48.06 103.95 47.9599 104.05 47.8599 104.15C47.5399 104.57 47.0399 104.82 46.5099 104.9C46.3399 104.9 46.1899 104.85 46.0399 104.8C45.8899 104.73 45.74 104.63 45.64 104.5C43.47 105.55 41.47 106.69 39.95 107.59C40.6 107.61 41.22 107.81 41.77 108.16C43.34 107.11 46.0899 105.62 48.8999 104.12C48.6799 103.8 48.5299 103.7 48.4799 103.7V103.71Z" fill="#FFC509"/>
<path d="M56.01 100.3C55.01 100.6 53.89 100.97 52.74 101.42C52.94 101.64 53.09 101.89 53.19 102.17C54.54 101.6 55.76 101.12 56.83 100.77C56.51 100.7 56.23 100.52 56.01 100.3Z" fill="#FFC509"/>
<path d="M42.8599 108.7C43.9599 108.45 45.0799 108.55 46.1299 108.92C47.6299 107.67 49.1999 106.53 50.8399 105.5C50.3199 105.45 49.8399 105.23 49.4399 104.9C47.1499 106 44.9499 107.27 42.8599 108.69V108.7Z" fill="#FFC509"/>
<path d="M52.39 97.48C53.51 95.98 54.73 94.61 56.11 93.34C54.36 93.86 52.62 95.16 51.25 96.33C51.57 96.5 51.87 96.75 52.1 97.03C52.22 97.18 52.32 97.33 52.4 97.48H52.39Z" fill="#FFC509"/>
<path d="M96.24 69.7399C97.26 68.5199 97.41 67.4499 97.41 63.4299C96.76 64.4999 94.92 66.9999 94.62 68.1699C94.02 70.4099 95.24 70.9899 96.24 69.7399Z" fill="#FFC509"/>
<path d="M95.39 73.8599C96.41 72.9399 97.24 71.2899 97.61 69.5199C96.41 70.9899 95.09 71.0199 94.22 71.9599C92.55 73.7799 94.37 74.7799 95.39 73.8599Z" fill="#FFC509"/>
<path d="M93.8501 71.1599C94.1001 70.3599 93.5501 68.6899 93.7801 67.4199C92.6801 68.6399 91.9101 70.9099 92.3801 71.9599C92.8301 73.0299 93.6001 71.9399 93.8501 71.1599Z" fill="#FFC509"/>
<path d="M91.4299 74.7799C92.3499 73.8099 90.9299 71.6899 91.5499 68.9399C91.5499 68.9399 89.6799 71.9599 89.4799 73.0799C88.8099 76.7699 90.4799 75.7499 91.4299 74.7799Z" fill="#FFC509"/>
<path d="M93.0499 77.57C93.9999 77.5 95.1699 76.4 96.3899 74.1C95.4199 75.22 92.8699 74.77 92.1199 75.62C91.9499 75.79 91.8199 75.99 91.7699 76.24C91.7199 76.49 91.7499 76.71 91.8399 76.94C91.9399 77.16 92.1099 77.34 92.3099 77.46C92.5599 77.56 92.8099 77.61 93.0299 77.56L93.0499 77.57Z" fill="#FFC509"/>
<path d="M89.8101 80.5199C89.1601 81.2899 88.3901 82.0699 87.7901 82.6399C86.3901 83.6099 84.5701 83.5899 83.5701 84.3099C81.9501 85.5099 82.9701 86.1599 84.1401 85.8799C84.9601 85.6799 85.8601 85.0299 87.5801 83.0399C88.3801 82.2899 89.1501 81.5199 89.8501 80.6999C89.9701 80.9699 90.2001 81.2199 90.4701 81.3499C90.7401 81.4699 91.0701 81.4999 91.3701 81.3999C92.5701 81.0999 93.1401 80.6999 95.3601 77.3599C94.5101 77.8299 91.5901 77.9099 90.4201 79.1099C90.2201 79.2799 90.0501 79.5099 89.9501 79.7299C89.8301 79.9999 89.7801 80.2499 89.8001 80.5299L89.8101 80.5199Z" fill="#FFC509"/>
<path d="M80.6301 85.6299C80.7501 84.2599 80.3601 84.4599 81.6301 82.1099C81.0801 82.5099 78.8101 84.2799 78.8101 86.0499C78.8301 88.4399 80.5101 86.9999 80.6301 85.6299Z" fill="#FFC509"/>
<path d="M77.26 88.75C78.41 87.63 77.61 86.43 78.76 84.24C78.76 84.24 76.79 85.66 76.09 87.33C75.34 89.03 76.09 89.87 77.26 88.75Z" fill="#FFC509"/>
<path d="M74.4399 90.7899C75.8899 89.3199 74.8899 88.1999 75.7899 86.3999C75.0199 87.1999 73.8899 87.9999 73.1999 89.2399C72.3999 90.7099 72.9999 92.2599 74.4499 90.7899H74.4399Z" fill="#FFC509"/>
<path d="M70.9699 93.0899C72.6399 91.5899 71.57 90.0499 73.59 87.6799C72.32 88.2999 70.0499 90.2999 69.3199 91.7499C68.5999 93.1999 69.2999 94.6199 70.9699 93.0999V93.0899Z" fill="#FFC509"/>
<path d="M67.2601 94.91C68.4301 93.74 68.56 91.72 70 89.25C69.18 89.77 66.4801 91.32 65.4101 93.12C64.1401 95.24 66.0801 96.09 67.2601 94.92V94.91Z" fill="#FFC509"/>
<path d="M62.64 97.1499C64.98 94.8799 63.94 94.1599 65.73 91.1399C63.76 92.3099 62.06 93.9099 60.74 95.7999C60.12 96.8199 60.54 99.1899 62.64 97.1499Z" fill="#FFC509"/>
<path d="M56.43 98.2299C55.63 99.9499 57.08 100.8 58.28 99.6799C59.48 98.5599 59.95 95.6899 62.45 92.1699C60.75 93.1699 57.64 95.66 56.44 98.2299H56.43Z" fill="#FFC509"/>
<path d="M54.6601 100.17C56.6801 98.1 56.1601 96.4 59.3201 93.01C56.9001 93.88 53.2301 96.75 52.2401 98.85C51.3201 100.85 53.3101 101.54 54.6601 100.17Z" fill="#FFC509"/>
<path d="M42.6599 109.18C41.2099 109.85 43.4599 110.5 45.2799 109.85C47.1299 109.2 43.8799 108.63 42.6599 109.18Z" fill="#FFC509"/>
<path d="M39.35 108.03C37.68 108.43 39.4 109.13 40.65 108.85C41.87 108.6 40.4 107.8 39.35 108.03Z" fill="#FFC509"/>
<path d="M64.54 109.43C66.36 109.48 68.18 109.13 69.88 108.38C69.13 108.26 68.41 108.06 67.71 107.83C66.79 108.6 65.69 109.15 64.54 109.43Z" fill="#FFC509"/>
<path d="M68.3099 102.64C67.5399 103.16 66.7599 103.64 65.9399 104.06C69.3299 104.46 72.7699 104.58 76.1899 104.46C76.7399 103.76 77.1599 103.01 77.4899 102.19C74.4499 102.56 71.3799 102.71 68.3099 102.64Z" fill="#FFC509"/>
<path d="M73.1699 106.13C73.2399 106.15 75.3599 104.93 75.3599 104.93H74.1099C73.7599 105.3 73.4399 105.7 73.1599 106.13H73.1699Z" fill="black"/>
<path d="M73.6399 100.3L73.0899 100.47C72.0699 100.79 71.1399 101.07 70.2699 101.32C72.0399 101.47 74.2099 101.1 76.8799 100.35C75.7299 100.28 74.6099 99.9799 73.5899 99.5299C73.0199 99.2799 72.3699 99.2599 71.7699 99.4599L71.6199 99.5099C70.3199 99.9599 68.9999 100.31 67.6499 100.58C68.2999 100.93 68.9999 101.18 69.7199 101.28C70.7199 101.01 71.8199 100.66 73.0599 100.28L73.6099 100.11H73.7099C73.7099 100.11 73.7599 100.16 73.7599 100.18V100.28C73.6899 100.28 73.6599 100.28 73.6399 100.3Z" fill="#FFC509"/>
<path d="M78.9599 93.4399C79.6099 93.1699 80.2599 92.8699 80.8799 92.5399C80.3299 92.4399 79.7599 92.3899 79.1799 92.3899C78.6099 92.7099 77.9799 92.9899 77.3299 93.2099C77.2299 93.3299 77.1799 93.4599 77.1099 93.6099C77.5599 93.7099 78.0299 93.6799 78.4799 93.5899C78.5299 93.5699 78.6999 93.5199 78.9499 93.4399H78.9599Z" fill="#FFC509"/>
<path d="M81.2299 92.59C80.8599 92.81 80.4799 92.99 80.1299 93.16C79.1599 93.76 78.1799 94.33 77.1599 94.81C77.3799 95.26 77.9099 95.56 78.7599 95.56C80.5599 95.56 82.3299 94.74 85.4399 92.84C84.0399 93.04 82.6199 92.94 81.2199 92.59H81.2299Z" fill="#FFC509"/>
<path d="M84.4699 89.4499C84.0199 89.3999 83.6199 89.3799 83.2199 89.3799C82.4999 89.7999 81.7499 90.1799 80.9799 90.4999C80.9099 90.6999 80.9099 90.9499 80.9599 91.1499C82.1799 90.6999 83.3499 90.1299 84.4799 89.4499H84.4699Z" fill="#FFC509"/>
<path d="M84.84 89.47C83.64 90.24 82.37 90.87 81.05 91.37C81.2 91.67 81.47 91.92 81.82 92.02C82.19 91.8 82.59 91.57 83.04 91.3C83.06 91.28 83.09 91.28 83.11 91.3C83.13 91.3 83.16 91.32 83.18 91.35C83.2 91.37 83.2001 91.4 83.2001 91.42C83.2001 91.44 83.18 91.47 83.15 91.49C82.78 91.71 82.4301 91.91 82.1001 92.11C82.3501 92.16 82.57 92.16 82.82 92.13C85.79 91.76 87.1801 90.63 89.3101 89.01C87.8401 89.46 86.32 89.61 84.82 89.46L84.84 89.47Z" fill="#FFC509"/>
<path d="M87.61 85.86C87.46 85.96 87.31 86.03 87.16 86.11C86.41 86.73 85.61 87.31 84.77 87.76C84.77 87.93 84.82 88.08 84.89 88.23C85.71 87.78 86.49 87.26 87.18 86.66C87.2 86.64 87.23 86.64 87.25 86.64C87.27 86.64 87.3 86.66 87.32 86.69C87.34 86.71 87.34 86.74 87.34 86.76C87.34 86.78 87.32 86.81 87.29 86.83C86.59 87.43 85.82 87.98 85 88.4C85.2 88.55 85.45 88.62 85.7 88.65C85.95 88.68 86.2 88.65 86.45 88.58C89.24 87.96 91.29 85.51 91.29 85.51C90.09 85.81 88.85 85.93 87.6 85.86H87.61Z" fill="#FFC509"/>
<path d="M87.54 84.3299C87.59 84.5299 87.69 84.6999 87.81 84.8299C87.93 84.9799 88.11 85.0799 88.31 85.1299C88.96 84.6799 89.66 84.1299 90.63 83.3099C90.65 83.2899 90.68 83.2899 90.7 83.2899C90.72 83.2899 90.75 83.3099 90.77 83.3399C90.79 83.3599 90.79 83.3899 90.79 83.4099C90.79 83.4299 90.77 83.4599 90.74 83.4799C89.87 84.2299 89.19 84.7799 88.57 85.1999C88.82 85.2199 89.04 85.2199 89.29 85.1799C90.49 84.9299 91.48 84.1599 93.83 81.5599C92.51 81.6599 91.19 81.8599 89.89 82.1299C89.17 82.9299 88.37 83.6499 87.52 84.3199L87.54 84.3299Z" fill="#FFC509"/>
<path d="M89.53 82.24C89.18 82.31 88.83 82.46 88.51 82.64C88.26 82.79 88.04 82.99 87.86 83.24C87.68 83.49 87.59 83.76 87.51 84.04C88.23 83.49 88.88 82.89 89.53 82.24Z" fill="#FFC509"/>
<path d="M87.3101 76.65L87.3301 76.67C87.3301 76.67 87.3301 76.69 87.3501 76.72V76.77C87.3501 76.77 87.3501 76.79 87.3301 76.82C86.9801 77.27 86.6301 77.67 86.3101 78.02C86.3101 78.19 86.3301 78.34 86.4101 78.49C86.4801 78.64 86.5601 78.79 86.6801 78.89C87.3301 78.12 88.0501 77.27 88.5801 76.7C88.6801 75.75 88.6001 74.6 88.6301 73.58C87.9801 74.2 86.3901 76.25 86.3101 77.7C86.5801 77.4 86.8601 77.05 87.1301 76.7L87.1501 76.68C87.1501 76.68 87.1701 76.66 87.2001 76.66H87.2501H87.3001L87.3101 76.65Z" fill="#FFC509"/>
<path d="M88.0399 78.45C88.3399 78.05 88.5099 77.58 88.5599 77.1C88.0599 77.65 87.4599 78.35 86.9399 79C87.1599 79.02 87.3899 78.98 87.5599 78.88C87.7299 78.81 87.9099 78.66 88.0299 78.46L88.0399 78.45Z" fill="#FFC509"/>
<path d="M81.23 86.5799C79.58 87.5299 80.31 88.2999 81.68 88.2499C83.05 88.1999 84.45 87.7499 86.84 85.8599C85.17 86.5099 82.65 85.7899 81.23 86.5799Z" fill="#FFC509"/>
<path d="M77.51 89.0999C76.59 89.8999 76.94 90.7699 78.13 90.7699C79.32 90.7699 80.52 90.5499 83.37 88.8999C80.68 89.1699 78.93 87.8999 77.51 89.0999Z" fill="#FFC509"/>
<path d="M80.18 91.4399C78.18 91.6599 75.57 90.5899 74.57 91.2699C73.95 91.6899 73.85 92.6199 74.97 92.9199C76.67 93.3899 77.94 92.7999 80.18 91.4499V91.4399Z" fill="#FFC509"/>
<path d="M59.0301 100.02C57.1301 100.19 56.7601 102.69 59.5801 103.01C62.4001 103.33 65.6701 102.86 69.2601 101.49C64.9001 101.89 61.4001 99.7899 59.0301 100.02Z" fill="#FFC509"/>
<path d="M81.38 85.13C81.75 85.45 82.45 85.03 83.23 83.98C84 82.93 82.9299 81.88 85.8999 78.34C84.6799 79.51 83.53 80.78 82.48 82.13C81.46 83.5 81.01 84.8 81.38 85.12V85.13Z" fill="#FFC509"/>
<path d="M84.4899 81.5899C83.4399 83.0099 84.9099 83.9599 85.9899 82.9099C86.3899 82.5099 86.7099 82.0599 87.0099 81.5899C87.9299 80.7899 89.5799 79.1499 90.7499 77.8699L90.7699 77.8499V77.7999C90.7699 77.7999 90.7699 77.7799 90.7499 77.7799C90.7499 77.7799 90.7299 77.7799 90.7299 77.7599H90.6799C90.6799 77.7599 90.6599 77.7599 90.6599 77.7799C89.6099 78.8999 88.2399 80.2699 87.3199 81.1499C87.6699 80.5799 88.0199 79.8999 88.4199 79.1299C89.2899 78.2299 90.0899 77.2599 90.7899 76.2399V76.1699L90.7699 76.1499H90.6999L90.6799 76.1699C89.9799 77.1899 89.2099 78.1399 88.3599 79.0399C87.6599 79.3099 85.4399 80.3899 84.5199 81.6099L84.4899 81.5899Z" fill="#FFC509"/>
<path d="M54.24 102.57C58.41 104.47 67.28 107.58 70.38 108.01C70.7 106.46 71 105.04 71 105.04C64.76 104.52 60.62 103.99 55.26 102.22C54.81 102.37 54.24 102.57 54.24 102.57Z" fill="#FFC509"/>
<path d="M68.9501 98.2499C68.6801 98.2499 68.3801 98.2499 68.0801 98.2299C69.3001 98.6299 70.5701 98.7999 71.8701 98.7999C71.5201 98.6299 71.2201 98.4299 70.9201 98.1799C70.2701 98.2299 69.6001 98.2799 68.9501 98.2499Z" fill="#FFC509"/>
<path d="M71.1699 93.5599C69.6999 94.6099 70.4699 95.5599 71.7199 95.6599C72.9399 95.7599 75.4399 95.3599 77.8799 93.9399C76.7099 94.1099 73.0699 92.2399 71.1699 93.5699V93.5599Z" fill="#FFC509"/>
<path d="M67.5099 95.3299C66.3099 95.5999 64.9399 97.5199 67.0599 97.7999C69.3299 98.1199 71.6699 97.8199 73.7899 96.9299C71.6399 96.7099 69.2999 94.9099 67.4999 95.3299H67.5099Z" fill="#FFC509"/>
<path d="M74.44 96.5799C75.41 96.3599 76.36 96.0599 77.26 95.6799C76.91 95.5099 76.61 95.3299 76.31 95.1599C74.96 95.7299 73.52 96.0299 72.07 96.0099H71.75L71.73 96.0299C72.53 96.2999 73.5 96.6999 74.45 96.5799H74.44Z" fill="#FFC509"/>
<path d="M77.56 95.8299C76.79 96.1299 76.1099 96.3799 75.4399 96.5499C74.1399 97.1499 72.82 97.6499 71.45 97.9999C71.6 98.1999 71.7699 98.3499 71.9999 98.4699C72.1999 98.5899 72.45 98.6699 72.67 98.6899C72.72 98.6899 72.79 98.7099 72.84 98.7099C74.36 98.4399 75.8299 97.9399 77.1799 97.2399C77.1999 97.2199 77.2299 97.2199 77.2499 97.2399C77.2699 97.2399 77.2999 97.2599 77.3199 97.2899C77.3399 97.3099 77.3399 97.3399 77.3199 97.3899C77.3199 97.4099 77.3 97.4399 77.27 97.4599C76.07 98.0799 74.8299 98.5299 73.4999 98.8299C75.9199 99.0499 78.3099 98.3299 82.6799 96.1899C79.9599 96.5599 78.5399 96.2399 77.5399 95.8199L77.56 95.8299Z" fill="#FFC509"/>
<path d="M63.0399 97.6799C61.1399 98.0799 61.04 99.7799 62.64 100.22C64.24 100.64 66.7299 100.64 71.5699 99.1199C68.5499 99.0999 65.0799 97.2499 63.0399 97.6699V97.6799Z" fill="#FFC509"/>
<path d="M67.0101 100.67C66.4601 100.77 65.9101 100.82 65.3401 100.84C66.2901 101.04 67.2401 101.16 68.2101 101.19C67.7901 101.07 67.3901 100.89 67.0101 100.67Z" fill="#FFC509"/>
</svg>
